<svg xmlns="http://www.w3.org/2000/svg" width="14" height="14" fill="none" viewBox="0 0 14 14"><path fill="red" d="m11.5 2 .1.01a.5.5 0 0 1 .4.49v7.99l.001.01q-.001.053-.013.104a.5.5 0 0 1-.488.399L11.47 11H8.5c-.428 0-.652.17-.787.355a1.2 1.2 0 0 0-.213.65.5.5 0 0 1-1 0 1.2 1.2 0 0 0-.212-.65C6.154 11.17 5.928 11 5.5 11H2.53l-.03.003a.5.5 0 0 1-.5-.5L1.991 2.5a.5.5 0 0 1 .5-.5l.02.002H6c.384 0 .735.145 1 .383A1.5 1.5 0 0 1 8 2zM8 3a.5.5 0 0 0-.5.5v6.742a2.05 2.05 0 0 1 1-.242H11V3zm-5 7h2.5c.396 0 .728.092 1 .241V3.5a.5.5 0 0 0-.5-.498H2.992z"/></svg>