<svg xmlns="http://www.w3.org/2000/svg" width="14" height="14" fill="none" viewBox="0 0 14 14"><path fill="red" d="M10.603 2.01q.094.02.172.072l.013.009c.129.09.214.24.214.409L11 2.52v6.96l.002.02-.002.02v1.957l.002.023a.5.5 0 0 1-.01.093l-.01.036q-.006.027-.016.054l-.016.035a.5.5 0 0 1-.082.12.5.5 0 0 1-.099.083q-.026.015-.053.027l-.007.005-.012.008h-.004a.5.5 0 0 1-.09.03l-.1.009H4.497a1.5 1.5 0 0 1-1.5-1.5v-7a1.5 1.5 0 0 1 1.5-1.5h6.004zM4.498 10a.5.5 0 0 0 0 1H10v-1zm0-7a.5.5 0 0 0-.5.5v5.587a1.5 1.5 0 0 1 .5-.087H10V3z"/><path stroke="green" stroke-linecap="round" stroke-linejoin="round" d="M5 5h1M5 7h4"/></svg>