<svg xmlns="http://www.w3.org/2000/svg" width="16" height="16" fill="none" viewBox="0 0 14 14"><circle cx="7" cy="7" r="4.5" stroke="green"/><path fill="red" d="M7 3.5a.5.5 0 0 1 .5.5v1.134l.067-.116a.5.5 0 0 1 .866.5l-1 1.732-.008.01-.034.048-.029.034q-.018.018-.039.035-.015.015-.031.027-.023.016-.048.029l-.037.02q-.021.01-.044.017l-.05.015q-.02.005-.043.007l-.054.006L7 7.5l-.031-.004q-.024 0-.047-.004l-.056-.013q-.02-.004-.039-.011l-.057-.027-.02-.008-.01-.008-.049-.034-.034-.029q-.018-.018-.035-.039-.015-.015-.027-.031-.016-.023-.029-.048l-.02-.037q-.01-.021-.017-.044l-.015-.05q-.005-.02-.007-.043L6.5 7.016V4a.5.5 0 0 1 .5-.5"/></svg>