<svg xmlns="http://www.w3.org/2000/svg" width="16" height="16" fill="none" viewBox="0 0 14 14"><path fill="red" d="M5.004 3.046a.5.5 0 0 1 .894.447.476.476 0 0 0 .559.668l2.188-.64.035-.008.047-.008.054-.003h.04l.063.01.03.005a.5.5 0 0 1 .21.118q.016.013.031.028.006.007.01.015l.02.024.037.055q.01.019.017.039l.02.05.007.014.004.03a.5.5 0 0 1 .012.15q-.002.023-.007.045l-.008.047-.016.045q-.008.023-.02.046t-.027.045l-.023.036q-.018.022-.039.042l-.019.023-2.792 2.55a1.486 1.486 0 0 0 1 2.58h.967a1.25 1.25 0 0 1 0 2.5H7.95a.5.5 0 0 1 0-1h.347a.25.25 0 0 0 0-.5h-.966a2.485 2.485 0 0 1-1.675-4.32l1.196-1.092-.115.034c-1.236.362-2.31-.923-1.734-2.075"/></svg>