<svg xmlns="http://www.w3.org/2000/svg" width="16" height="16" fill="none" viewBox="0 0 14 14"><path fill="red" d="M10.604 2.01a.5.5 0 0 1 .399.49q0 .014-.003.027v6.945l.003.028q0 .014-.003.027v1.939l.003.034a.5.5 0 0 1-.037.184l-.013.027-.031.059-.015.02a.5.5 0 0 1-.186.157l-.03.015a.5.5 0 0 1-.088.028l-.1.01H4.498q-.078 0-.154-.008a1.5 1.5 0 0 1-1.34-1.339l-.007-.153v-7A1.5 1.5 0 0 1 4.498 2h6.005zM4.498 10a.5.5 0 0 0-.5.5l.01.1a.5.5 0 0 0 .49.4H10v-1zm0-7a.5.5 0 0 0-.5.5v5.587c.156-.055.325-.087.5-.087H10V3z"/></svg>