<svg xmlns="http://www.w3.org/2000/svg" width="14" height="14" fill="none" viewBox="0 0 14 14"><path stroke="green" stroke-linecap="round" d="M3 7h8"/><path fill="red" d="M8 1.5a.5.5 0 0 1 .5.5v2.5a1.5 1.5 0 1 1-1-1.413V2a.5.5 0 0 1 .5-.5M7 4a.5.5 0 1 0 0 1 .5.5 0 0 0 0-1m-.768 4a.5.5 0 0 1 .5.5V11a1.5 1.5 0 1 1-1-1.413V8.5a.5.5 0 0 1 .5-.5m-1 2.5a.5.5 0 1 0 0 1 .5.5 0 0 0 0-1m4.415-1.085a.5.5 0 0 1 .243.97c-.556.14-.556.93 0 1.07a.5.5 0 0 1-.243.97 1.52 1.52 0 0 1-.9-.607 1.52 1.52 0 0 1-.897.608.501.501 0 0 1-.242-.97c.522-.132.554-.835.098-1.037l-.098-.033-.095-.034A.501.501 0 0 1 7.75 9.4l.1.015.142.042c.332.114.584.316.756.564.195-.282.495-.505.898-.606"/></svg>