<svg xmlns="http://www.w3.org/2000/svg" width="14" height="14" fill="none" viewBox="0 0 14 14"><path stroke="green" stroke-linecap="round" d="M3 7h8"/><path fill="red" d="M6 1.5A2.5 2.5 0 0 1 8.5 4v.5a1.5 1.5 0 1 1-1.379-1.494A1.5 1.5 0 0 0 6 2.5a.5.5 0 0 1 0-1M7 4a.5.5 0 1 0 0 1 .5.5 0 0 0 0-1M4.5 8c1.232 0 2.231 1 2.232 2.231V11a1.5 1.5 0 1 1-1.224-1.475A1.23 1.23 0 0 0 4.5 9a.5.5 0 0 1 0-1m.732 2.5a.5.5 0 1 0 0 1 .5.5 0 0 0 0-1m4.415-1.085a.5.5 0 0 1 .243.97c-.556.14-.556.93 0 1.07a.5.5 0 0 1-.243.97 1.52 1.52 0 0 1-.898-.607 1.52 1.52 0 0 1-.899.608.5.5 0 0 1-.242-.97c.521-.132.554-.835.098-1.037l-.098-.033-.096-.034a.5.5 0 0 1 .239-.952l.1.015.142.042c.332.114.584.317.756.565.195-.282.494-.506.898-.607"/></svg>