<svg width="14" height="14" viewBox="0 0 14 14" fill="none" xmlns="http://www.w3.org/2000/svg">
<path d="M8.89648 2.64648C9.09175 2.45122 9.40825 2.45122 9.60352 2.64648C9.79878 2.84175 9.79878 3.15825 9.60352 3.35352L5.95703 7L9.60352 10.6465L9.66797 10.7246C9.79613 10.9187 9.77438 11.1827 9.60352 11.3535C9.43265 11.5244 9.16869 11.5461 8.97461 11.418L8.89648 11.3535L5.25 7.70703V11C5.25 11.2761 5.02614 11.5 4.75 11.5C4.47386 11.5 4.25 11.2761 4.25 11V3C4.25 2.72386 4.47386 2.5 4.75 2.5C5.02614 2.5 5.25 2.72386 5.25 3V6.29297L8.89648 2.64648Z" fill="red"/>
</svg>
