<svg width="14" height="14" viewBox="0 0 14 14" fill="none" xmlns="http://www.w3.org/2000/svg">
<path d="M11 4.25C11.2761 4.25 11.5 4.47386 11.5 4.75C11.5 5.02614 11.2761 5.25 11 5.25H7.70703L11.3535 8.89648L11.418 8.97461C11.5461 9.16869 11.5244 9.43265 11.3535 9.60352C11.1827 9.77438 10.9187 9.79613 10.7246 9.66797L10.6465 9.60352L7 5.95703L3.35352 9.60352C3.15825 9.79878 2.84175 9.79878 2.64648 9.60352C2.45122 9.40825 2.45122 9.09175 2.64648 8.89648L6.29297 5.25H3C2.72386 5.25 2.5 5.02614 2.5 4.75C2.5 4.47386 2.72386 4.25 3 4.25H11Z" fill="red"/>
</svg>
