<svg width="14" height="14" viewBox="0 0 14 14" fill="none" xmlns="http://www.w3.org/2000/svg">
<path d="M9.25004 2.5C9.52616 2.50002 9.75004 2.72387 9.75004 3V11C9.75004 11.2761 9.52616 11.5 9.25004 11.5C8.9739 11.5 8.75004 11.2761 8.75004 11V7.70703L5.10355 11.3535C4.9083 11.5488 4.59179 11.5488 4.39652 11.3535C4.20126 11.1583 4.20126 10.8417 4.39652 10.6465L8.04301 7L4.39652 3.35352C4.20126 3.15825 4.20126 2.84175 4.39652 2.64648C4.59179 2.45124 4.9083 2.45123 5.10355 2.64648L8.75004 6.29297V3C8.75004 2.72386 8.9739 2.5 9.25004 2.5Z" fill="red"/>
</svg>
