<svg width="14" height="14" viewBox="0 0 14 14" fill="none" xmlns="http://www.w3.org/2000/svg">
<path d="M10.6465 4.39651C10.8417 4.20125 11.1583 4.20125 11.3535 4.39651C11.5488 4.59178 11.5488 4.90829 11.3535 5.10355L7.70703 8.75003H11C11.2761 8.75003 11.5 8.97389 11.5 9.25003C11.5 9.52616 11.2761 9.75003 11 9.75003H3C2.72387 9.75003 2.50002 9.52616 2.5 9.25003C2.5 8.97389 2.72386 8.75003 3 8.75003H6.29297L2.64648 5.10355C2.45123 4.90829 2.45124 4.59178 2.64648 4.39651C2.84175 4.20125 3.15825 4.20125 3.35352 4.39651L7 8.043L10.6465 4.39651Z" fill="red"/>
</svg>
