<svg width="14" height="14" viewBox="0 0 14 14" fill="none"
    xmlns="http://www.w3.org/2000/svg">
    <path d="M2.5 10.25H11.5" stroke="green" stroke-linecap="round"/>
    <path d="M8 6.76016L8 7.73935C8 8.29738 8.45238 8.74976 9.01041 8.74976C9.56844 8.74976 10.0208 8.29738 10.0208 7.73935L10.0208 6.76016C10.0208 6.20213 9.56844 5.74976 9.01041 5.74976C8.45238 5.74976 8 6.20213 8 6.76016Z" stroke="red" stroke-linecap="round" stroke-linejoin="round"/>
    <path d="M6 4.75L6 7.75C6 8.30228 5.55228 8.75 5 8.75C4.44772 8.75 4 8.30228 4 7.75L4 4.75C4 4.19772 4.44772 3.75 5 3.75C5.55228 3.75 6 4.19772 6 4.75Z" stroke="red" stroke-linecap="round"/>
</svg>
