<svg width="14" height="14" viewBox="0 0 14 14" fill="none"
    xmlns="http://www.w3.org/2000/svg">
    <path d="M7.48984 6.0104H6.51065C5.95262 6.0104 5.50024 5.55803 5.50024 5C5.50024 4.44197 5.95262 3.98959 6.51065 3.98959H7.48984C8.04787 3.98959 8.50024 4.44197 8.50024 5C8.50024 5.55803 8.04787 6.0104 7.48984 6.0104Z" stroke="red" stroke-linecap="round" stroke-linejoin="round"/>
    <path d="M9.5 8.01041H6.5C5.94772 8.01041 5.5 8.45812 5.5 9.01041C5.5 9.56269 5.94772 10.0104 6.5 10.0104H9.5C10.0523 10.0104 10.5 9.56269 10.5 9.01041C10.5 8.45812 10.0523 8.01041 9.5 8.01041Z" stroke="red" stroke-linecap="round"/>
    <path d="M3.50024 2V12" stroke="green" stroke-linecap="round"/>
</svg>
