<svg width="14" height="14" viewBox="0 0 14 14" fill="none"
    xmlns="http://www.w3.org/2000/svg">
    <path d="M10.4998 2V12" stroke="green" stroke-linecap="round"/>
    <path d="M7.4896 6.02081H6.5104C5.95237 6.02081 5.5 5.56844 5.5 5.0104C5.5 4.45237 5.95237 4 6.5104 4H7.4896C8.04763 4 8.5 4.45237 8.5 5.0104C8.5 5.56844 8.04763 6.02081 7.4896 6.02081Z" stroke="red" stroke-linecap="round" stroke-linejoin="round"/>
    <path d="M7.5 8H4.5C3.94772 8 3.5 8.44772 3.5 9C3.5 9.55228 3.94772 10 4.5 10H7.5C8.05228 10 8.5 9.55228 8.5 9C8.5 8.44772 8.05228 8 7.5 8Z" stroke="red" stroke-linecap="round"/>
</svg>
