<svg xmlns="http://www.w3.org/2000/svg" width="16" height="16" fill="none" viewBox="0 0 14 14"><g clip-path="url(#a)"><path fill="#00f" d="M4.637 4.655a1.9 1.9 0 0 1 2.625-.058 4.6 4.6 0 0 0-.865.603.902.902 0 0 0-1.081 1.406 5 5 0 0 0-.174.39h-.404q-.182.001-.361.02a1.9 1.9 0 0 1 .26-2.361"/><path stroke="#00f" stroke-linecap="round" stroke-linejoin="round" d="M6 3V1m2.121 2.879 1.415-1.415M3 6H1m2.879-2.121L2.464 2.464"/><path stroke="red" stroke-linecap="round" stroke-linejoin="round" d="M6.333 9.497v-.842c0-.943.429-1.834 1.165-2.423v0a3.103 3.103 0 0 1 4.132.229l.334.333a3.34 3.34 0 0 1 .626 3.856l-.252.505a2.43 2.43 0 0 1-2.171 1.342v0m-3.834-4H4.737a2 2 0 0 0-1.664 3.11l.039.058c.346.52.93.832 1.555.832"/><path stroke="green" stroke-linecap="round" stroke-linejoin="round" d="M6 11v1m1.513 0v1M9 11v1"/></g><defs><clipPath id="a"><path fill="#fff" d="M0 0h16v16H0z"/></clipPath></defs></svg>