<svg width="14" height="14" viewBox="0 0 14 14" fill="none" xmlns="http://www.w3.org/2000/svg">
<path d="M6.69531 2.25C7.42495 2.25006 8.11787 2.56912 8.59277 3.12305C9.30955 3.95928 9.38398 5.14942 8.82031 6.06152C9.16218 6.23077 9.47237 6.46544 9.73145 6.75684C10.7418 7.89349 10.7418 9.60651 9.73145 10.7432C9.16215 11.3835 8.34607 11.75 7.48926 11.75H4.5C4.08579 11.75 3.75 11.4142 3.75 11V3C3.75 2.58579 4.08579 2.25 4.5 2.25H6.69531ZM5.25 10.25H7.48926C7.91771 10.25 8.3257 10.0663 8.61035 9.74609C9.11545 9.17779 9.11545 8.32221 8.61035 7.75391C8.3257 7.43367 7.91771 7.25 7.48926 7.25H5.25V10.25ZM5.25 5.75H6.69531C6.98716 5.74994 7.26416 5.62199 7.4541 5.40039C7.77498 5.02594 7.77498 4.47406 7.4541 4.09961C7.26416 3.87801 6.98716 3.75006 6.69531 3.75H5.25V5.75Z" fill="red"/>
</svg>
