<svg width="14" height="14" viewBox="0 0 14 14" fill="none" xmlns="http://www.w3.org/2000/svg">
<path d="M6.69531 2.5C7.35207 2.50006 7.9759 2.78748 8.40332 3.28613C9.11308 4.11436 9.12314 5.32758 8.4375 6.16895C8.85864 6.32361 9.2404 6.5803 9.54492 6.92285C10.4711 7.96479 10.4711 9.53521 9.54492 10.5771C9.02307 11.1642 8.27471 11.5 7.48926 11.5H4.5C4.22386 11.5 4 11.2761 4 11V3C4 2.72386 4.22386 2.5 4.5 2.5H6.69531ZM5 10.5H7.48926C7.98907 10.5 8.46576 10.2866 8.79785 9.91309C9.38723 9.25004 9.38723 8.24996 8.79785 7.58691C8.46576 7.21338 7.98907 7 7.48926 7H5V10.5ZM5 6H6.69531C7.06015 5.99994 7.4071 5.84048 7.64453 5.56348C8.04557 5.09543 8.04557 4.40457 7.64453 3.93652C7.4071 3.65952 7.06015 3.50006 6.69531 3.5H5V6Z" fill="red"/>
</svg>
