<svg xmlns="http://www.w3.org/2000/svg" width="14" height="14" fill="none" viewBox="0 0 14 14"><path fill="red" d="m9.853 10.283-.244-.437a.5.5 0 0 1 .402-.037zM12 11l.49-.098a.5.5 0 0 1-.648.572zm-.463-2.318-.49.098a.5.5 0 0 1 .058-.35zM7 3v.5C4.405 3.5 2.5 5.165 2.5 7h-1c0-2.584 2.572-4.5 5.5-4.5zM2 7h.5c0 1.835 1.905 3.5 4.5 3.5v1c-2.928 0-5.5-1.916-5.5-4.5zm5 4v-.5a5.4 5.4 0 0 0 2.61-.654l.243.437.243.437A6.4 6.4 0 0 1 7 11.5zm2.853-.717.158-.474 2.147.717L12 11l-.158.474-2.148-.716zM12 11l-.49.098-.463-2.318.49-.098.49-.098.463 2.318zm-.463-2.318-.432-.251c.255-.441.395-.925.395-1.431h1a3.84 3.84 0 0 1-.53 1.933zM12 7h-.5c0-1.835-1.905-3.5-4.5-3.5v-1c2.928 0 5.5 1.916 5.5 4.5z"/></svg>