<svg xmlns="http://www.w3.org/2000/svg" width="16" height="16" fill="none" viewBox="0 0 14 14"><path fill="red" d="m4.147 10.283.244-.437a.5.5 0 0 0-.402-.037zM2 11l-.49-.098a.5.5 0 0 0 .648.572zm.463-2.318.49.098a.5.5 0 0 0-.058-.35zM7 3v.5c2.595 0 4.5 1.665 4.5 3.5h1c0-2.584-2.572-4.5-5.5-4.5zm5 4h-.5c0 1.835-1.905 3.5-4.5 3.5v1c2.928 0 5.5-1.916 5.5-4.5zm-5 4v-.5a5.4 5.4 0 0 1-2.61-.654l-.243.437-.243.437c.886.493 1.952.78 3.096.78zm-2.853-.717L3.99 9.81l-2.147.717L2 11l.158.474 2.148-.716zM2 11l.49.098.463-2.318-.49-.098-.49-.098-.463 2.318zm.463-2.318.432-.251A2.83 2.83 0 0 1 2.5 7h-1c0 .696.193 1.35.53 1.933zM2 7h.5c0-1.835 1.905-3.5 4.5-3.5v-1C4.072 2.5 1.5 4.416 1.5 7z"/></svg>