<svg xmlns="http://www.w3.org/2000/svg" width="16" height="16" fill="none" viewBox="0 0 14 14"><path fill="red" d="M5.289 3.003a1.98 1.98 0 1 1 2.38 3.118l-.535.305L9.32 8.614l.263-.392a.5.5 0 0 1 .832.555l-.373.558.81.811.065.078a.5.5 0 0 1-.694.694l-.078-.065-.705-.705q-.358.384-.81.656l-.56.336a2.78 2.78 0 0 1-3.097-.16c-1.598-1.2-1.446-3.643.288-4.635l.239-.137-.256-.256a2.055 2.055 0 0 1 0-2.905zm.47 4.21a1.779 1.779 0 1 0 1.797 3.07l.56-.336c.23-.138.437-.31.617-.507L6.234 6.941zM7.23 3.588a.98.98 0 0 0-1.235.122l-.044.044a1.055 1.055 0 0 0 0 1.49l.45.45.772-.442a.98.98 0 0 0 .057-1.664"/></svg>