<svg xmlns="http://www.w3.org/2000/svg" width="16" height="16" fill="none" viewBox="0 0 14 14"><path fill="red" d="M7 2c1.149 0 2.21.173 3.004.47.395.149.75.338 1.014.572.263.234.482.557.482.958v6c0 .401-.219.724-.482.958-.265.235-.62.423-1.014.571C9.21 11.827 8.149 12 7 12s-2.21-.173-3.004-.47c-.395-.149-.75-.337-1.014-.572-.263-.234-.482-.557-.482-.958V4c0-.401.219-.724.482-.958.265-.234.62-.423 1.014-.571C4.79 2.173 5.851 2 7 2m3.5 6.306a4 4 0 0 1-.496.223C9.21 8.827 8.149 9 7 9s-2.21-.173-3.004-.47a4 4 0 0 1-.496-.224V10c0 .013.006.085.146.21s.372.26.7.383C5.002 10.838 5.94 11 7 11s1.999-.162 2.653-.407c.329-.123.56-.259.7-.383.141-.125.147-.197.147-.21zm0-3a4 4 0 0 1-.496.223C9.21 5.827 8.149 6 7 6s-2.21-.173-3.004-.47a4 4 0 0 1-.496-.224V7c0 .013.006.085.146.21s.372.26.7.383C5.002 7.838 5.94 8 7 8s1.999-.162 2.653-.407c.329-.124.56-.259.7-.383.141-.125.147-.197.147-.21zM7 3c-1.06 0-1.999.162-2.653.407-.329.124-.56.259-.7.383-.141.125-.147.197-.147.21s.006.085.146.21.372.26.7.383C5.002 4.838 5.94 5 7 5s1.999-.162 2.653-.407c.329-.124.56-.259.7-.383.141-.125.147-.197.147-.21s-.006-.085-.146-.21-.372-.26-.7-.383C8.998 3.162 8.06 3 7 3"/></svg>