<svg xmlns="http://www.w3.org/2000/svg" width="16" height="16" fill="none" viewBox="0 0 14 14"><path stroke="red" d="M7.917 2.417a.917.917 0 1 0-1.834 0c0 .567-.302 1.091-.794 1.375l-.212.122a1.59 1.59 0 0 1-1.588 0 .917.917 0 0 0-.917 1.588c.492.284.794.808.794 1.375v.246c0 .567-.302 1.091-.794 1.375a.917.917 0 1 0 .917 1.588 1.59 1.59 0 0 1 1.588 0l.212.122c.492.284.794.808.794 1.375a.917.917 0 1 0 1.834 0c0-.567.302-1.091.794-1.375l.212-.123a1.59 1.59 0 0 1 1.588 0 .917.917 0 1 0 .917-1.587 1.59 1.59 0 0 1-.794-1.375v-.246c0-.567.302-1.091.794-1.375a.917.917 0 1 0-.917-1.588 1.59 1.59 0 0 1-1.588 0l-.212-.122a1.59 1.59 0 0 1-.794-1.375Z"/><path stroke="red" d="M5.5 7a1.5 1.5 0 1 0 3 0 1.5 1.5 0 0 0-3 0Z"/></svg>