<svg xmlns="http://www.w3.org/2000/svg" width="16" height="16" fill="none" viewBox="0 0 14 14"><path fill="red" d="M11.5 7h.5zm-9 0H2zM6 5h-.5zm5.292 1.935.382.323zM11.5 7H11a4 4 0 0 1-4 4v1a5 5 0 0 0 5-5zM7 11.5V11a4 4 0 0 1-4-4H2a5 5 0 0 0 5 5zM2.5 7H3a4 4 0 0 1 4-4V2a5 5 0 0 0-5 5zm4.565-4.294-.323-.382A3.5 3.5 0 0 0 5.5 5h1c0-.766.344-1.453.888-1.912zM6 5h-.5A3.5 3.5 0 0 0 9 8.5v-1A2.5 2.5 0 0 1 6.5 5zm3 3v.5a3.5 3.5 0 0 0 2.674-1.242l-.382-.323-.382-.323A2.5 2.5 0 0 1 9 7.5zM7 2.5V3a.395.395 0 0 1-.376-.276.38.38 0 0 1 .118-.4l.323.382.323.382a.62.62 0 0 0 .192-.657.605.605 0 0 0-.58-.43zM11.5 7h.5a.61.61 0 0 0-.434-.58.62.62 0 0 0-.656.192l.382.323.382.323a.38.38 0 0 1-.397.118A.39.39 0 0 1 11 7z"/></svg>