<svg xmlns="http://www.w3.org/2000/svg" width="16" height="16" fill="none" viewBox="0 0 14 14"><path fill="red" d="M8.28 2.5a1.5 1.5 0 0 1 1.422 1.025l.735 2.204 1.21 1.21a1.5 1.5 0 0 1 0 2.122L9.06 11.646a1.5 1.5 0 0 1-2.122 0l-1.21-1.21-2.204-.734A1.5 1.5 0 0 1 2.5 8.28V3q0-.05.009-.099V2.9a.5.5 0 0 1 .03-.093q.011-.025.024-.047a.5.5 0 0 1 .196-.196q.022-.013.047-.024a.5.5 0 0 1 .093-.03h.002A.5.5 0 0 1 3 2.5zM6.353 5.646v.001a1.5 1.5 0 1 1-.706.706h-.002L3.5 4.208V8.28a.5.5 0 0 0 .342.475l2.316.771.014.006.061.028.018.008.009.006.015.009.023.019q.02.015.04.033l.016.012 1.292 1.293a.5.5 0 0 0 .708 0l2.586-2.585a.5.5 0 0 0 0-.708L9.646 6.354l-.012-.016-.033-.04-.019-.023-.009-.015-.006-.009-.008-.018-.028-.061-.006-.014-.771-2.316a.5.5 0 0 0-.475-.342H4.207zM7 6.5a.5.5 0 1 0 0 1 .5.5 0 0 0 0-1"/></svg>