<svg xmlns="http://www.w3.org/2000/svg" width="16" height="16" fill="none" viewBox="0 0 14 14"><path fill="red" d="M10 1.5a.5.5 0 0 1 .5.5v4.002a.5.5 0 0 1 .497.5V8c0 .776-.59 1.416-1.347 1.493l-.153.007H8.5V11a1.5 1.5 0 0 1-3 0V9.5h-.994a1.5 1.5 0 0 1-1.5-1.5V6.502a.5.5 0 0 1 .494-.5V2a.5.5 0 0 1 .5-.5zM4.006 8a.5.5 0 0 0 .5.5H6a.5.5 0 0 1 .5.5v2a.5.5 0 0 0 1 0V9a.5.5 0 0 1 .5-.5h1.497a.5.5 0 0 0 .5-.5v-.998H4.006zM4.5 6.002h5V2.5h-1v1.003l-.01.101a.5.5 0 0 1-.98 0l-.01-.101V2.5h-1v2.004a.5.5 0 0 1-1 0V2.5h-1z"/></svg>