<svg xmlns="http://www.w3.org/2000/svg" width="16" height="16" fill="none" viewBox="0 0 14 14"><path fill="red" d="M9.586 2.5a1.914 1.914 0 0 1 1.353 3.268l-4.586 4.586-.007.005-.05.04q-.017.015-.035.026l-.042.021q-.023.012-.044.02l-.017.009-3 1a.5.5 0 0 1-.633-.633l1-3 .008-.019.018-.038q.012-.027.026-.05l.022-.03q.017-.026.039-.049l.008-.01 4.586-4.585c.36-.36.846-.56 1.354-.561M4.437 8.27l-.646 1.939 1.94-.646L9.292 6 8 4.707zM9.586 3.5a.92.92 0 0 0-.647.268L8.707 4 10 5.293l.232-.232A.915.915 0 0 0 9.586 3.5"/></svg>