<svg xmlns="http://www.w3.org/2000/svg" width="16" height="16" fill="none" viewBox="0 0 14 14"><path stroke="red" stroke-linecap="round" stroke-linejoin="round" d="M8.02 9.75h.73a1 1 0 0 0 1-1V8m0-2h.75a1 1 0 0 0 1-1V3.5a1 1 0 0 0-1-1H9a1 1 0 0 0-1 1V5a1 1 0 0 0 1 1zM6 9.75V9a1 1 0 0 0-1-1H3.5a1 1 0 0 0-1 1v1.5a1 1 0 0 0 1 1H5a1 1 0 0 0 1-1zM2.5 5V3.5a1 1 0 0 1 1-1H5a1 1 0 0 1 1 1V5a1 1 0 0 1-1 1H3.5a1 1 0 0 1-1-1"/><circle cx="8.004" cy="8" r=".5" fill="red"/><circle cx="11.5" cy="8" r=".5" fill="red"/><circle cx="8.004" cy="11.5" r=".5" fill="red"/><circle cx="11.5" cy="11.5" r=".5" fill="red"/></svg>