<svg xmlns="http://www.w3.org/2000/svg" width="16" height="16" fill="none" viewBox="0 0 14 14"><path fill="red" d="M8.657 7.5a2.17 2.17 0 0 1-.152 3.845l-.334.157a2.75 2.75 0 0 1-2.342 0l-.334-.157A2.17 2.17 0 0 1 4.25 9.383a.5.5 0 0 1 1 0c0 .452.262.864.67 1.056l.335.158a1.75 1.75 0 0 0 1.49 0l.334-.158a1.168 1.168 0 0 0 0-2.114l-1.292-.608-.46-.217zM5.414 3.008a2.75 2.75 0 0 1 3.172 0l.087.061A2.55 2.55 0 0 1 9.75 5.147a.5.5 0 0 1-1 0c0-.501-.244-.972-.653-1.261l-.088-.062a1.75 1.75 0 0 0-2.018 0l-.088.062c-.41.289-.653.76-.653 1.261q.001.183.056.353H4.28a2 2 0 0 1-.03-.353c0-.826.402-1.601 1.077-2.078z"/><path stroke="green" stroke-linecap="round" d="M11 7H3"/></svg>