<svg xmlns="http://www.w3.org/2000/svg" width="16" height="16" fill="none" viewBox="0 0 14 14"><circle cx="7" cy="7" r="1.5" stroke="red"/><path fill="green" d="M7 9.5a.5.5 0 0 1 .5.5v2a.5.5 0 0 1-1 0v-2a.5.5 0 0 1 .5-.5m-2.475-.732a.5.5 0 0 1 .707.707l-1.414 1.414a.5.5 0 0 1-.707-.707zm4.243 0a.5.5 0 0 1 .707 0l1.414 1.414a.5.5 0 0 1-.707.707L8.768 9.475a.5.5 0 0 1 0-.707M4 6.5a.5.5 0 0 1 0 1H2a.5.5 0 0 1 0-1zm8 0a.5.5 0 0 1 0 1h-2a.5.5 0 0 1 0-1zM3.111 3.111a.5.5 0 0 1 .707 0l1.414 1.414a.5.5 0 0 1-.707.707L3.111 3.818a.5.5 0 0 1 0-.707m7.07 0a.5.5 0 0 1 .708.707L9.475 5.232a.5.5 0 0 1-.707-.707zM7 1.5a.5.5 0 0 1 .5.5v2a.5.5 0 0 1-1 0V2a.5.5 0 0 1 .5-.5"/></svg>