<svg xmlns="http://www.w3.org/2000/svg" width="16" height="16" fill="none" viewBox="0 0 14 14"><path stroke="green" stroke-linecap="round" stroke-linejoin="round" d="M5 11a3.62 3.62 0 0 1-2-3.236V6.236C3 4.866 3.774 3.613 5 3m4 8a3.62 3.62 0 0 0 2-3.236V6.236c0-1.37-.774-2.623-2-3.236"/><path fill="red" d="m5.62 5.014.188.056c.586.2.983.609 1.191 1.09.23-.531.69-.973 1.38-1.146a.501.501 0 0 1 .241.97c-1.055.265-1.055 1.766 0 2.03A.5.5 0 0 1 8.478 9l-.1-.015-.187-.056a1.96 1.96 0 0 1-1.192-1.09c-.229.531-.688.973-1.379 1.146a.5.5 0 0 1-.242-.97c1.024-.257 1.056-1.673.096-2.002l-.096-.028-.095-.034A.501.501 0 0 1 5.52 5z"/></svg>