<svg xmlns="http://www.w3.org/2000/svg" width="14" height="14" fill="none" viewBox="0 0 14 14"><path fill="red" d="M7.991 2.5c1.415 0 2.67.905 3.118 2.247l.223.668c.05.147.155.268.293.338.536.269.875.817.875 1.417v.475a2.35 2.35 0 0 1-1 1.923v.932a1 1 0 1 1-2 0V10h-5v.5a1 1 0 1 1-2 0v-.932a2.35 2.35 0 0 1-1-1.923V7.17c0-.6.339-1.148.875-1.417a.6.6 0 0 0 .293-.338l.223-.668A3.29 3.29 0 0 1 6.009 2.5zm-1.982 1c-.985 0-1.859.63-2.17 1.563l-.223.668a1.6 1.6 0 0 1-.793.915.59.59 0 0 0-.323.524v.475C2.5 8.393 3.107 9 3.855 9h6.29c.748 0 1.355-.607 1.355-1.355V7.17a.59.59 0 0 0-.323-.524 1.6 1.6 0 0 1-.793-.915l-.223-.668A2.29 2.29 0 0 0 7.991 3.5z"/><path stroke="red" stroke-linecap="round" d="M6.003 7.5h2M10 7v1M4 7v1"/><path fill="red" d="M8.293 4A1 1 0 0 1 9 4.293C9.63 4.923 9.184 6 8.293 6H5.707C4.817 6 4.37 4.923 5 4.293A1 1 0 0 1 5.707 4z"/></svg>