<svg width="14" height="14" viewBox="0 0 14 14" fill="none" xmlns="http://www.w3.org/2000/svg">
<path d="M3.25 10C3.25 10.5523 3.69772 11 4.25 11C4.80228 11 5.25 10.5523 5.25 10C5.25 9.44772 4.80228 9 4.25 9C3.69772 9 3.25 9.44772 3.25 10Z" stroke="red"/>
<path d="M8.75 10C8.75 10.5523 9.19772 11 9.75 11C10.3023 11 10.75 10.5523 10.75 10C10.75 9.44772 10.3023 9 9.75 9C9.19772 9 8.75 9.44772 8.75 10Z" stroke="red"/>
<path d="M2 10V10C1.44772 10 1 9.55228 1 9V7.70711C1 7.25435 1.17986 6.82014 1.5 6.5V6.5C1.82014 6.17986 2.25435 6 2.70711 6H3.30887C4.3654 6 5.35202 5.47198 5.93807 4.5929L6 4.5C6.62474 3.56288 7.6765 3 8.80278 3H8.85631C10.1701 3 11.3711 3.74228 11.9587 4.91737L12.7438 6.48754C12.9123 6.82455 13 7.19616 13 7.57295V9C13 9.55228 12.5523 10 12 10V10" stroke="red" stroke-linecap="round"/>
<path d="M6.5 10H7.5" stroke="red" stroke-linecap="round"/>
</svg>
