<svg xmlns="http://www.w3.org/2000/svg" width="16" height="16" fill="none" viewBox="0 0 14 14"><path fill="red" d="M4.506 6.627a2.495 2.495 0 0 0 2.366 2.366l.915.915q-.141.034-.287.056V11a.5.5 0 0 1-1 0V9.964a3.5 3.5 0 0 1-3-3.464.5.5 0 0 1 .39-.488zM10 6a.5.5 0 0 1 .5.5c0 .548-.127 1.066-.351 1.527L9.38 7.26c.076-.24.12-.495.12-.76A.5.5 0 0 1 10 6M7 2.497a2 2 0 0 1 2 2V6.5q-.002.177-.033.346L8 5.879V4.497a1 1 0 0 0-1.872-.49l-.719-.719c.366-.48.941-.79 1.591-.79"/><path stroke="green" stroke-linecap="round" stroke-linejoin="round" d="m3 3 8 8"/></svg>