<svg width="14" height="14" viewBox="0 0 14 14" fill="none"
    xmlns="http://www.w3.org/2000/svg">
    <path d="M4.50598 6.62711C4.57011 7.90626 5.59316 8.92875 6.87219 8.99332L7.78723 9.90836C7.69277 9.93008 7.59733 9.95011 7.50012 9.96402V11.0002C7.50004 11.2762 7.27616 11.5001 7.00012 11.5002C6.72403 11.5002 6.5002 11.2762 6.50012 11.0002V9.96402C4.80407 9.72137 3.5002 8.26329 3.50012 6.50015C3.50012 6.26156 3.66718 6.06173 3.89075 6.01187L4.50598 6.62711ZM10.0001 6.00015C10.2762 6.00022 10.5001 6.22405 10.5001 6.50015C10.5001 7.04801 10.373 7.56586 10.1486 8.0275L9.38098 7.25992C9.45743 7.02019 9.50011 6.76521 9.50012 6.50015C9.50012 6.22401 9.72398 6.00015 10.0001 6.00015ZM7.00012 2.49722C8.10463 2.49729 9.00012 3.39269 9.00012 4.49722V6.50015C9.00011 6.61825 8.98657 6.73338 8.96692 6.84586L8.00012 5.87906V4.49722C8.00012 3.94498 7.55235 3.49729 7.00012 3.49722C6.62592 3.49722 6.29951 3.70265 6.12805 4.00699L5.4093 3.28824C5.77463 2.80827 6.35039 2.49722 7.00012 2.49722Z" fill="red"/>
    <path d="M3 3L11 11" stroke="green" stroke-linecap="round" stroke-linejoin="round"/>
</svg>
