<svg xmlns="http://www.w3.org/2000/svg" width="16" height="16" fill="none" viewBox="0 0 14 14"><path fill="red" d="M6.225 3.008a3.372 3.372 0 0 1 4.767 4.766 3.37 3.37 0 0 1-3.548.778.5.5 0 0 0-.052.22v.21c0 .793-.644 1.437-1.437 1.437h-.156a.28.28 0 0 0-.282.28 1.28 1.28 0 0 1-1.28 1.28h-.834a1.383 1.383 0 0 1-.978-2.36l3.033-3.034a3.37 3.37 0 0 1 .767-3.577m4.061.707a2.372 2.372 0 0 0-3.792 2.748c.1.189.073.428-.086.587h-.003l.001.002-3.274 3.274a.383.383 0 0 0 .271.653h.834a.28.28 0 0 0 .28-.28c0-.707.575-1.28 1.282-1.28h.156a.437.437 0 0 0 .437-.438v-.21a1.5 1.5 0 0 1 .439-1.06l.12-.12a.5.5 0 0 1 .585-.087 2.37 2.37 0 0 0 2.75-3.79m-1.52.583a.662.662 0 1 1 .936.936.662.662 0 0 1-.936-.936"/></svg>