<svg xmlns="http://www.w3.org/2000/svg" width="16" height="16" fill="none" viewBox="0 0 14 14"><path fill="red" d="M7 .942a3.371 3.371 0 0 1 1.412 6.43.5.5 0 0 0 .118.193l.148.148a1.437 1.437 0 0 1 0 2.032l-.11.11a.28.28 0 0 0 0 .398c.5.5.5 1.31 0 1.81l-.59.59a1.383 1.383 0 0 1-2.361-.977V7.384A3.37 3.37 0 0 1 7 .942m0 1a2.372 2.372 0 0 0-.738 4.624.5.5 0 0 1 .355.476v4.634a.384.384 0 0 0 .654.27l.59-.59a.28.28 0 0 0 0-.396c-.5-.5-.5-1.311 0-1.811l.11-.11a.437.437 0 0 0 0-.619l-.148-.148a1.5 1.5 0 0 1-.44-1.06v-.17c0-.223.147-.41.349-.474A2.371 2.371 0 0 0 7 1.941m0 .825A.662.662 0 1 1 7 4.09a.662.662 0 0 1 0-1.324"/></svg>