<svg xmlns="http://www.w3.org/2000/svg" width="16" height="16" fill="none" viewBox="0 0 14 14"><path fill="red" d="M7.856 9.977a.5.5 0 0 1-.132-.06l-.078-.064-.07-.062a.915.915 0 0 0-1.223.062.5.5 0 0 1-.707-.707c.252-.251.556-.418.878-.5zM5.465 7.586c-.403.18-.78.437-1.112.767a.5.5 0 0 1-.707-.707 4.7 4.7 0 0 1 1.073-.805zm3.224-1.018c.535.204 1.04.507 1.488.91l.176.168.065.079a.5.5 0 0 1-.01.562zM5.934 3.813a8.5 8.5 0 0 1 6.083 1.57l.295.226.072.072a.5.5 0 0 1-.612.764l-.085-.054-.26-.2A7.5 7.5 0 0 0 6.87 4.748zm-2.44 1.802a7.5 7.5 0 0 0-1.182.776.5.5 0 0 1-.625-.782q.514-.41 1.072-.73z"/><path stroke="green" stroke-linecap="round" stroke-linejoin="round" d="m3 3 8 8"/></svg>