<svg width="14" height="14" viewBox="0 0 14 14" fill="none"
    xmlns="http://www.w3.org/2000/svg">
    <circle cx="4" cy="8.5" r="0.5" fill="green"/>
    <circle cx="4" cy="10" r="0.5" fill="green"/>
    <circle cx="8.5" cy="7" r="0.5" fill="green"/>
    <circle cx="5.5" cy="8.5" r="0.5" fill="green"/>
    <circle cx="5.5" cy="10" r="0.5" fill="green"/>
    <circle cx="8.5" cy="8.5" r="0.5" fill="green"/>
    <circle cx="8.5" cy="10" r="0.5" fill="green"/>
    <circle cx="7" cy="7" r="0.5" fill="green"/>
    <circle cx="7" cy="8.5" r="0.5" fill="green"/>
    <circle cx="7" cy="10" r="0.5" fill="green"/>
    <circle cx="10" cy="7" r="0.5" fill="green"/>
    <circle cx="10" cy="8.5" r="0.5" fill="green"/>
    <path d="M8.5 2C8.77614 2 9 2.22386 9 2.5V3H10.5C11.3284 3 12 3.67157 12 4.5V10.5C12 11.3284 11.3284 12 10.5 12H3.5C2.67157 12 2 11.3284 2 10.5V4.5C2 3.67157 2.67157 3 3.5 3H5V2.5C5 2.22386 5.22386 2 5.5 2C5.77614 2 6 2.22386 6 2.5V3H8V2.5C8 2.22386 8.22386 2 8.5 2ZM3 10.5C3 10.7761 3.22386 11 3.5 11H10.5C10.7761 11 11 10.7761 11 10.5V6H3V10.5ZM3.5 4C3.22386 4 3 4.22386 3 4.5V5H11V4.5C11 4.22386 10.7761 4 10.5 4H9C9 4.27614 8.77614 4.5 8.5 4.5C8.22386 4.5 8 4.27614 8 4H6C6 4.27614 5.77614 4.5 5.5 4.5C5.22386 4.5 5 4.27614 5 4H3.5Z" fill="red"/>
</svg>
