<svg xmlns="http://www.w3.org/2000/svg" width="14" height="14" fill="none" viewBox="0 0 14 14"><circle cx="4" cy="8.5" r=".5" fill="green"/><circle cx="4" cy="10" r=".5" fill="green"/><circle cx="8.5" cy="7" r=".5" fill="green"/><circle cx="5.5" cy="8.5" r=".5" fill="green"/><circle cx="5.5" cy="10" r=".5" fill="green"/><circle cx="8.5" cy="8.5" r=".5" fill="green"/><circle cx="8.5" cy="10" r=".5" fill="green"/><circle cx="7" cy="7" r=".5" fill="green"/><circle cx="7" cy="8.5" r=".5" fill="green"/><circle cx="7" cy="10" r=".5" fill="green"/><circle cx="10" cy="7" r=".5" fill="green"/><circle cx="10" cy="8.5" r=".5" fill="green"/><path fill="red" d="M8.5 2a.5.5 0 0 1 .5.5V3h1.5A1.5 1.5 0 0 1 12 4.5v6a1.5 1.5 0 0 1-1.5 1.5h-7A1.5 1.5 0 0 1 2 10.5v-6A1.5 1.5 0 0 1 3.5 3H5v-.5a.5.5 0 0 1 1 0V3h2v-.5a.5.5 0 0 1 .5-.5M3 10.5a.5.5 0 0 0 .5.5h7a.5.5 0 0 0 .5-.5V6H3zM3.5 4a.5.5 0 0 0-.5.5V5h8v-.5a.5.5 0 0 0-.5-.5H9a.5.5 0 0 1-1 0H6a.5.5 0 0 1-1 0z"/></svg>