<svg xmlns="http://www.w3.org/2000/svg" width="16" height="16" fill="none" viewBox="0 0 14 14"><path fill="red" d="M11.262 5.134a1.602 1.602 0 0 1 1.133 2.734l-.456.457-3.117 3.116-.01.007-.055.045-.02.015-.062.032-.03.014-.019.008-2.338.779a.5.5 0 0 1-.632-.632l.779-2.338.008-.018q.01-.024.022-.047l.012-.027.015-.025.024-.03.031-.039.009-.01L9.673 6.06l.456-.457c.3-.3.708-.468 1.133-.468M7.346 9.8l-.425 1.276 1.277-.426 2.68-2.68-.851-.85zm3.916-3.666a.6.6 0 0 0-.426.176l-.102.103.85.85.104-.102a.603.603 0 0 0-.426-1.027"/><path fill="green" d="M3.88 9.634a.5.5 0 1 1 0 1H2.63a.5.5 0 1 1 0-1zm2.25-3a.5.5 0 1 1 0 1h-3.5a.5.5 0 1 1 0-1zm3-3a.5.5 0 1 1 0 1h-6.5a.5.5 0 1 1 0-1z"/></svg>