<svg xmlns="http://www.w3.org/2000/svg" width="15" height="15" fill="none" viewBox="0 0 15 15"><path fill="red" d="M12.066 5.536a1.68 1.68 0 0 1 1.188 2.87l-.488.488-3.34 3.34-.007.004a.5.5 0 0 1-.141.095l-.027.012-.02.01-2.504.833a.5.5 0 0 1-.633-.631l.835-2.505.005-.013a.5.5 0 0 1 .074-.134q.014-.019.03-.036l.011-.013 3.34-3.338.488-.49a1.68 1.68 0 0 1 1.189-.492M7.84 10.48l-.481 1.445 1.442-.482 2.902-2.902-.963-.962zm4.225-3.943a.68.68 0 0 0-.48.2l-.137.135.962.962.136-.135a.681.681 0 0 0-.481-1.162"/><path fill="green" d="M4.156 10.357a.5.5 0 0 1 0 1H2.818a.5.5 0 0 1 0-1zm2.412-3.215a.5.5 0 0 1 0 1h-3.75a.5.5 0 0 1 0-1zM9.78 3.928a.5.5 0 0 1 0 1H2.817a.5.5 0 0 1 0-1z"/></svg>