<svg width="14" height="14" viewBox="0 0 14 14" fill="none" xmlns="http://www.w3.org/2000/svg">
<path d="M7 2.5C7.27614 2.5 7.5 2.72386 7.5 3C7.5 4.933 9.067 6.5 11 6.5C11.2761 6.5 11.5 6.72386 11.5 7C11.5 7.27614 11.2761 7.5 11 7.5C9.067 7.5 7.5 9.067 7.5 11C7.5 11.2761 7.27614 11.5 7 11.5C6.72386 11.5 6.5 11.2761 6.5 11C6.5 9.067 4.933 7.5 3 7.5C2.72386 7.5 2.5 7.27614 2.5 7C2.5 6.72386 2.72386 6.5 3 6.5C4.933 6.5 6.5 4.933 6.5 3C6.5 2.72386 6.72386 2.5 7 2.5ZM7 5.06055C6.57108 5.8915 5.8915 6.57108 5.06055 7C5.89125 7.42879 6.57105 8.10787 7 8.93848C7.42881 8.10813 8.10813 7.42881 8.93848 7C8.10787 6.57105 7.42879 5.89125 7 5.06055Z" fill="red"/>
</svg>
