<svg xmlns="http://www.w3.org/2000/svg" width="14" height="14" fill="none" viewBox="0 0 14 14"><path fill="red" d="M6.75 2.75a.5.5 0 0 1 .5.5 3.5 3.5 0 0 0 3.5 3.5.5.5 0 0 1 0 1 3.5 3.5 0 0 0-3.5 3.5.5.5 0 0 1-1 0 3.5 3.5 0 0 0-3.5-3.5.5.5 0 0 1 0-1 3.5 3.5 0 0 0 3.5-3.5.5.5 0 0 1 .5-.5m0 2.56a4.5 4.5 0 0 1-1.94 1.94 4.5 4.5 0 0 1 1.94 1.938A4.5 4.5 0 0 1 8.688 7.25 4.5 4.5 0 0 1 6.75 5.31"/><path fill="green" d="M10.25 2.25q.048 0 .093.009.018.003.036.01.027.006.054.016l.035.017a.5.5 0 0 1 .12.082.5.5 0 0 1 .113.155l.01.019q.019.044.03.091l.019.202c.04.195.194.35.39.39l.2.019a.5.5 0 0 1 .091.028l.019.01q.03.013.057.03l.034.025a.5.5 0 0 1 .122.132q.014.022.024.046l.017.035q.01.027.016.054l.01.036a.5.5 0 0 1 0 .187l-.01.036-.016.054-.017.035a1 1 0 0 1-.047.078.5.5 0 0 1-.133.125l-.057.03-.019.01a.5.5 0 0 1-.09.03l-.202.019a.5.5 0 0 0-.39.39l-.019.2a.5.5 0 0 1-.03.091l-.009.019a.5.5 0 0 1-.113.155.5.5 0 0 1-.12.082l-.035.017-.054.016-.036.01a.5.5 0 0 1-.187 0l-.036-.01q-.027-.006-.054-.016l-.035-.017-.046-.024a.5.5 0 0 1-.187-.213l-.01-.019a.5.5 0 0 1-.028-.09l-.02-.202a.5.5 0 0 0-.39-.39l-.2-.019a.5.5 0 0 1-.092-.03l-.019-.009a.5.5 0 0 1-.213-.187l-.024-.046-.017-.035-.016-.054-.01-.036a.5.5 0 0 1 0-.187l.01-.036q.006-.027.016-.054l.017-.035a.5.5 0 0 1 .082-.12.5.5 0 0 1 .155-.113l.019-.01a.5.5 0 0 1 .091-.028l.202-.02a.5.5 0 0 0 .39-.39l.019-.2a.5.5 0 0 1 .028-.092l.01-.019a.5.5 0 0 1 .187-.213q.022-.014.046-.024l.035-.017q.027-.01.054-.016l.036-.01a.5.5 0 0 1 .094-.009"/></svg>