<svg xmlns="http://www.w3.org/2000/svg" width="14" height="14" fill="none" viewBox="0 0 14 14"><path fill="red" d="M6.75 2.75a.5.5 0 0 1 .5.5 3.5 3.5 0 0 0 3.5 3.5.5.5 0 0 1 0 1 3.5 3.5 0 0 0-3.5 3.5.5.5 0 0 1-1 0 3.5 3.5 0 0 0-3.5-3.5.5.5 0 0 1 0-1 3.5 3.5 0 0 0 3.5-3.5.5.5 0 0 1 .5-.5m0 2.56a4.5 4.5 0 0 1-1.94 1.94 4.5 4.5 0 0 1 1.94 1.938A4.5 4.5 0 0 1 8.688 7.25 4.5 4.5 0 0 1 6.75 5.31"/><path stroke="green" stroke-linecap="round" stroke-linejoin="round" d="M9.25 3.75a1 1 0 0 1 1 1v0m1-1a1 1 0 0 0-1 1v0m-1-1a1 1 0 0 0 1-1v0m1 1a1 1 0 0 1-1-1v0M2 10.5a1 1 0 0 1 1 1v0m1-1a1 1 0 0 0-1 1v0m-1-1a1 1 0 0 0 1-1v0m1 1a1 1 0 0 1-1-1v0"/></svg>