<svg width="14" height="14" viewBox="0 0 14 14" fill="none"
    xmlns="http://www.w3.org/2000/svg">
    <path d="M9.00003 4.5C9.27616 4.50002 9.50003 4.72387 9.50003 5V9.79297L10.6465 8.64648C10.8418 8.45124 11.1583 8.45123 11.3535 8.64648C11.5488 8.84174 11.5488 9.15826 11.3535 9.35352L9.00003 11.707L6.64651 9.35352C6.45125 9.15825 6.45125 8.84175 6.64651 8.64648C6.81738 8.47564 7.08135 8.45387 7.27542 8.58203L7.35355 8.64648L8.50003 9.79297V5C8.50003 4.72386 8.72389 4.5 9.00003 4.5ZM7.35355 6.64648L7.418 6.72461C7.54615 6.91868 7.52439 7.18266 7.35355 7.35352C7.18269 7.52437 6.91872 7.54611 6.72464 7.41797L6.64651 7.35352L5.50003 6.20703V11C5.50003 11.2761 5.27616 11.5 5.00003 11.5C4.72389 11.5 4.50003 11.2761 4.50003 11V6.20703L3.35355 7.35352C3.15829 7.54877 2.84178 7.54876 2.64651 7.35352C2.45125 7.15825 2.45125 6.84175 2.64651 6.64648L5.00003 4.29297L7.35355 6.64648Z" fill="red"/>
    <path d="M3 3L11 3" stroke="green" stroke-linecap="round" stroke-linejoin="round"/>
</svg>
