<svg xmlns="http://www.w3.org/2000/svg" width="14" height="14" fill="none" viewBox="0 0 14 14"><path fill="red" d="M6.646 2.647a.5.5 0 0 1 .708 0L9.707 5l-2 2 2 2-2.353 2.354a.5.5 0 1 1-.708-.707L7.793 9.5H3a.5.5 0 0 1 0-1h4.793L6.646 7.354a.5.5 0 0 1-.135-.25l-.004-.03a.5.5 0 0 1 .024-.246l.008-.022.028-.055a.5.5 0 0 1 .08-.104L7.792 5.5H3a.5.5 0 0 1 0-1h4.793L6.646 3.354l-.064-.079a.5.5 0 0 1 .064-.628"/><path stroke="green" stroke-linecap="round" stroke-linejoin="round" d="M11 3v7.993"/></svg>