<svg xmlns="http://www.w3.org/2000/svg" width="14" height="14" fill="none" viewBox="0 0 14 14"><path fill="red" d="M7 1a.5.5 0 0 1 .5.5v.524c.55.055 1.072.2 1.555.417l.262-.454a.5.5 0 1 1 .866.5l-.264.454c.438.316.823.7 1.139 1.14l.455-.264a.5.5 0 0 1 .5.866l-.455.261c.218.483.363 1.006.418 1.556h.524a.5.5 0 0 1 0 1h-.524c-.055.55-.2 1.072-.418 1.555l.455.262a.5.5 0 1 1-.5.866l-.455-.264c-.316.438-.7.823-1.139 1.139l.264.455a.5.5 0 0 1-.866.5l-.262-.455a5 5 0 0 1-1.555.417v.525a.5.5 0 0 1-1 0v-.525a5 5 0 0 1-1.556-.417l-.261.455a.5.5 0 1 1-.866-.5l.263-.455a5 5 0 0 1-1.139-1.139l-.454.264a.5.5 0 0 1-.5-.866l.454-.262A5 5 0 0 1 2.024 7.5H1.5a.5.5 0 0 1 0-1h.524c.055-.55.2-1.073.417-1.556l-.454-.261a.5.5 0 1 1 .5-.866l.454.263a5 5 0 0 1 1.14-1.139l-.264-.454a.5.5 0 0 1 .866-.5l.261.454A5 5 0 0 1 6.5 2.024V1.5A.5.5 0 0 1 7 1m1.676 6.5a1.75 1.75 0 0 1-2.081 1.2l-1.148 1.987a4 4 0 0 0 5.52-3.187zM4.582 3.813A4 4 0 0 0 3 7c0 1.3.62 2.456 1.582 3.187L5.729 8.2a1.74 1.74 0 0 1 0-2.401zM7 6.25a.75.75 0 1 0 0 1.5.75.75 0 0 0 0-1.5M7 3a4 4 0 0 0-1.553.313l1.148 1.986Q6.79 5.25 7 5.25c.793 0 1.46.527 1.676 1.25h2.292A4 4 0 0 0 7 3"/></svg>