<svg width="14" height="14" viewBox="0 0 14 14" fill="none" xmlns="http://www.w3.org/2000/svg">
<path d="M3 9.75V9.75C3 10.4404 3.55964 11 4.25 11V11C4.94036 11 5.5 10.4404 5.5 9.75V4.25C5.5 3.55964 4.94036 3 4.25 3V3C3.55964 3 3 3.55964 3 4.25V4.25C3 4.94036 3.55964 5.5 4.25 5.5H9.75C10.4404 5.5 11 4.94036 11 4.25V4.25C11 3.55964 10.4404 3 9.75 3V3C9.05964 3 8.5 3.55964 8.5 4.25V9.75C8.5 10.4404 9.05964 11 9.75 11V11C10.4404 11 11 10.4404 11 9.75V9.75C11 9.05964 10.4404 8.5 9.75 8.5H4.25C3.55964 8.5 3 9.05964 3 9.75Z" stroke="red" stroke-linecap="round" stroke-linejoin="round"/>
</svg>
