<svg width="14" height="14" viewBox="0 0 14 14" fill="none"
    xmlns="http://www.w3.org/2000/svg">
    <path d="M8.5 2.5C8.77614 2.5 9 2.72386 9 3C9 3.27614 8.77614 3.5 8.5 3.5C7.60958 3.5 6.85849 4.16334 6.74805 5.04688L6.56641 6.5H7.5C7.77614 6.5 8 6.72386 8 7C8 7.27614 7.77614 7.5 7.5 7.5H6.44141L6.24414 9.07715C6.07114 10.4611 4.89474 11.5 3.5 11.5C3.22386 11.5 3 11.2761 3 11C3 10.7239 3.22386 10.5 3.5 10.5C4.39042 10.5 5.14151 9.83666 5.25195 8.95312L5.43359 7.5H4.5C4.22386 7.5 4 7.27614 4 7C4 6.72386 4.22386 6.5 4.5 6.5H5.55859L5.75586 4.92285C5.92886 3.53888 7.10526 2.5 8.5 2.5Z" fill="red"/>
    <path d="M8.5 9L10.5 11M8.5 11L10.5 9" stroke="green" stroke-linecap="round" stroke-linejoin="round"/>
</svg>
