<svg xmlns="http://www.w3.org/2000/svg" width="14" height="14" fill="none" viewBox="0 0 14 14"><path fill="red" d="M7 2a5 5 0 1 1 0 10A5 5 0 0 1 7 2M5.85 7.5a8.8 8.8 0 0 0 .948 3.495 4 4 0 0 0 .403 0 8.8 8.8 0 0 0 .95-3.495zm-2.818 0a4 4 0 0 0 2.546 3.238A9.8 9.8 0 0 1 4.847 7.5zm6.121 0a9.8 9.8 0 0 1-.732 3.238A4 4 0 0 0 10.968 7.5zm-.732-4.24a9.8 9.8 0 0 1 .732 3.24h1.815A4 4 0 0 0 8.42 3.26m-2.843 0A4 4 0 0 0 3.032 6.5h1.815c.056-1.104.3-2.2.731-3.24m1.22-.256A8.8 8.8 0 0 0 5.85 6.5h2.3a8.8 8.8 0 0 0-.949-3.496 4 4 0 0 0-.403 0"/></svg>