<svg width="14" height="14" viewBox="0 0 14 14" fill="none" xmlns="http://www.w3.org/2000/svg">
<path d="M11 2.5C11.2761 2.5 11.5 2.72386 11.5 3C11.5 3.27614 11.2761 3.5 11 3.5H10.5V4.46875C10.5 5.30398 9.93138 6.03278 9.12109 6.23535C8.75609 6.32671 8.5 6.65497 8.5 7.03125V7.11621C8.5 7.46834 8.69875 7.79072 9.01367 7.94824L9.22363 8.05273C10.0059 8.44386 10.5 9.24357 10.5 10.1182V10.5H11C11.2761 10.5 11.5 10.7239 11.5 11C11.5 11.2761 11.2761 11.5 11 11.5H3C2.72386 11.5 2.5 11.2761 2.5 11C2.5 10.7239 2.72386 10.5 3 10.5H3.5V10.1182C3.5 9.24357 3.99411 8.44386 4.77637 8.05273L4.98633 7.94824C5.30125 7.79072 5.5 7.46834 5.5 7.11621V7.03125C5.5 6.65497 5.24391 6.32671 4.87891 6.23535C4.06862 6.03278 3.5 5.30398 3.5 4.46875V3.5H3C2.72386 3.5 2.5 3.27614 2.5 3C2.5 2.72386 2.72386 2.5 3 2.5H11ZM4.5 4.46875C4.5 4.84503 4.75609 5.17329 5.12109 5.26465C5.93138 5.46722 6.5 6.19602 6.5 7.03125V7.11621C6.5 7.84711 6.0873 8.51586 5.43359 8.84277L5.22363 8.94727C4.78016 9.169 4.5 9.62234 4.5 10.1182V10.5H9.5V10.1182C9.5 9.62234 9.21984 9.169 8.77637 8.94727L8.56641 8.84277C7.9127 8.51586 7.5 7.84711 7.5 7.11621V7.03125C7.5 6.19602 8.06862 5.46722 8.87891 5.26465C9.24391 5.17329 9.5 4.84503 9.5 4.46875V3.5H4.5V4.46875Z" fill="red"/>
</svg>
