<svg xmlns="http://www.w3.org/2000/svg" width="14" height="14" fill="none" viewBox="0 0 14 14"><path fill="red" d="M11 2.5a.5.5 0 0 1 0 1h-.5v.969a1.82 1.82 0 0 1-1.379 1.766.82.82 0 0 0-.621.796v.085a.93.93 0 0 0 .514.832l.21.105a2.31 2.31 0 0 1 1.276 2.065v.382h.5a.5.5 0 0 1 0 1H3a.5.5 0 0 1 0-1h.5v-.382a2.31 2.31 0 0 1 1.276-2.065l.21-.105a.93.93 0 0 0 .514-.832v-.085a.82.82 0 0 0-.621-.796A1.82 1.82 0 0 1 3.5 4.47V3.5H3a.5.5 0 0 1 0-1zM4.5 4.469a.82.82 0 0 0 .621.796A1.82 1.82 0 0 1 6.5 7.031v.085c0 .731-.413 1.4-1.066 1.727l-.21.104a1.31 1.31 0 0 0-.724 1.171v.382h5v-.382c0-.496-.28-.949-.724-1.17l-.21-.105A1.93 1.93 0 0 1 7.5 7.116v-.085a1.82 1.82 0 0 1 1.379-1.766.82.82 0 0 0 .621-.796V3.5h-5z"/></svg>