<svg xmlns="http://www.w3.org/2000/svg" width="14" height="14" fill="none" viewBox="0 0 14 14"><path fill="red" d="M10.756 2.063a.5.5 0 0 1 .741.383l.274 2.555c.515 4.81-4.704 8.052-8.758 5.6q-.604.563-1.122 1.211l-.072.074a.501.501 0 0 1-.71-.698l.261-.315q.529-.617 1.13-1.157V8.5a5 5 0 0 1 5-5c.866 0 1.708-.28 2.4-.8l.8-.6zM10.5 3.5a5 5 0 0 1-3 1 4 4 0 0 0-4 4v.407a12.4 12.4 0 0 1 2.806-1.528l.513-.2a.501.501 0 0 1 .362.934l-.515.198A11.4 11.4 0 0 0 3.83 9.91c3.307 1.701 7.361-.937 6.948-4.8l-.181-1.682z"/></svg>