<svg width="14" height="14" viewBox="0 0 14 14" fill="none"
    xmlns="http://www.w3.org/2000/svg">
    <path d="M7 2.5L3 5.5H11L7 2.5Z" stroke="red" stroke-linecap="round" stroke-linejoin="round"/>
    <path d="M3.5 7H4M4.5 7H4M4 7L4.01447 10M4.01447 10H3.5M4.01447 10H4.5" stroke="green" stroke-linecap="round"/>
    <path d="M9.5 7H10M10.5 7H10M10 7L10.0145 10M10.0145 10H9.5M10.0145 10H10.5" stroke="green" stroke-linecap="round"/>
    <path d="M6.5 7H7M7.5 7H7M7 7L7.01447 10M7.01447 10H6.5M7.01447 10H7.5" stroke="green" stroke-linecap="round"/>
    <path d="M11 11.5L3 11.5" stroke="red" stroke-linecap="round"/>
</svg>
