<svg width="14" height="14" viewBox="0 0 14 14" fill="none" xmlns="http://www.w3.org/2000/svg">
<path d="M9.35397 4.64648C9.54896 4.84169 9.54896 5.15831 9.35397 5.35352C9.15878 5.54871 8.84222 5.54857 8.64694 5.35352L7.50046 4.20703V7.75C7.50046 9.26878 8.73167 10.5 10.2505 10.5H11.0005C11.2764 10.5002 11.5005 10.724 11.5005 11C11.5005 11.276 11.2764 11.4998 11.0005 11.5H10.2505C8.78336 11.5 7.51308 10.6573 6.89694 9.42969C6.15457 10.6691 4.80027 11.4998 3.25046 11.5H3.00046C2.72432 11.5 2.50046 11.2761 2.50046 11C2.50046 10.7239 2.72432 10.5 3.00046 10.5H3.25046C5.04518 10.4998 6.50046 9.04478 6.50046 7.25V4.20703L5.35397 5.35352C5.15878 5.54871 4.84222 5.54857 4.64694 5.35352C4.45168 5.15825 4.45168 4.84175 4.64694 4.64648L7.00046 2.29297L9.35397 4.64648Z" fill="red"/>
</svg>
