<svg xmlns="http://www.w3.org/2000/svg" width="16" height="16" fill="none" viewBox="0 0 14 14"><path fill="red" d="M7 2a5 5 0 1 1 0 10A5 5 0 0 1 7 2m0 1c-1.267 0-2.396.59-3.129 1.509l.303.126a2.324 2.324 0 0 1 .999 3.492 1.32 1.32 0 0 0-.244.768v1.527a4 4 0 0 0 5.58-1.502l-.246.259c-.14.146-.306.267-.489.354l-.124.06c-1.264.604-2.644-.58-2.239-1.921a.615.615 0 0 0-.227-.674c-1.037-.752-.836-2.36.363-2.823l.1-.038c.272-.106.567-.138.856-.094l1.406.213A4 4 0 0 0 7 3M3.346 5.373A4 4 0 0 0 3 7c0 .975.35 1.868.929 2.562v-.667c0-.483.15-.954.43-1.347a1.325 1.325 0 0 0-.57-1.99zm5.007-.342a.7.7 0 0 0-.346.038l-.1.04a.62.62 0 0 0-.136 1.08c.555.402.796 1.114.597 1.772-.154.51.37.959.85.73l.125-.06a.7.7 0 0 0 .196-.143l1.459-1.53a4 4 0 0 0-.34-1.577z"/></svg>