<svg width="14" height="14" viewBox="0 0 14 14" fill="none" xmlns="http://www.w3.org/2000/svg">
<path d="M7 2C9.76142 2 12 4.23858 12 7C12 9.76142 9.76142 12 7 12C4.23858 12 2 9.76142 2 7C2 4.23858 4.23858 2 7 2ZM7 3C5.73295 3 4.60398 3.58952 3.87109 4.50879L4.17383 4.63477C5.55012 5.20846 6.03702 6.91181 5.17285 8.12695C5.01355 8.35098 4.92877 8.61964 4.92871 8.89453V10.4219C5.53295 10.7884 6.24166 11 7 11C8.51318 11 9.8292 10.1593 10.5088 8.91992L10.2627 9.17871C10.1227 9.32545 9.95733 9.44566 9.77441 9.5332L9.65039 9.59277C8.38644 10.1972 7.0061 9.01306 7.41113 7.67188C7.48622 7.42295 7.39511 7.15156 7.18359 6.99805C6.14708 6.24636 6.34767 4.63859 7.54688 4.1748L7.64648 4.13672C7.91888 4.0314 8.21419 3.99916 8.50293 4.04297L9.90918 4.25586C9.17986 3.48295 8.14656 3 7 3ZM3.3457 5.37305C3.12403 5.87019 3 6.42052 3 7C3 7.97476 3.34929 8.86755 3.92871 9.56152V8.89453C3.92877 8.41196 4.07875 7.94114 4.3584 7.54785C4.85065 6.85557 4.57315 5.88441 3.78906 5.55762L3.3457 5.37305ZM8.35254 5.03125C8.23613 5.01367 8.11665 5.02688 8.00684 5.06934L7.90723 5.1084C7.45267 5.28466 7.37147 5.899 7.77051 6.18848C8.3258 6.59121 8.56683 7.30296 8.36816 7.96094C8.21438 8.47031 8.7387 8.91989 9.21875 8.69043L9.34277 8.63184C9.41638 8.59662 9.48274 8.54733 9.53906 8.48828L10.998 6.95801C10.9923 6.39687 10.8714 5.86397 10.6572 5.38086L8.35254 5.03125Z" fill="red"/>
</svg>
