<svg xmlns="http://www.w3.org/2000/svg" width="14" height="14" fill="none" viewBox="0 0 14 14"><path fill="red" d="M8.667 2.25a.5.5 0 0 1 .501.5v1.633l1.414-.817a.5.5 0 0 1 .684.184.506.506 0 0 1-.1.624.5.5 0 0 1-.084.06l-1.414.816 1.414.816a.502.502 0 0 1-.5.868l-1.414-.818V7.75a.5.5 0 0 1-.5.5v-.001.001a.5.5 0 0 1-.5-.5V6.116l-1.416.818a.5.5 0 0 1-.682-.184.5.5 0 0 1 .182-.684l1.413-.816-1.413-.816a.5.5 0 0 1-.182-.684.5.5 0 0 1 .398-.249l.097.003a.5.5 0 0 1 .187.062l1.415.817V2.75c0-.154.07-.29.18-.382a.5.5 0 0 1 .32-.118"/><path stroke="red" stroke-linecap="round" stroke-linejoin="round" d="M4.168 9.25a1 1 0 1 1 0 2 1 1 0 0 1 0-2"/></svg>