<svg width="14" height="14" viewBox="0 0 14 14" fill="none"
    xmlns="http://www.w3.org/2000/svg">
    <path d="M8.65723 7.49995C9.32891 7.88371 9.74995 8.60054 9.75 9.38277C9.74982 10.2226 9.26475 10.9871 8.50488 11.3447L8.1709 11.5019C7.42938 11.8508 6.57062 11.8508 5.8291 11.5019L5.49512 11.3447C4.73525 10.9871 4.25018 10.2226 4.25 9.38277C4.25008 9.10669 4.47391 8.88277 4.75 8.88277C5.02609 8.88277 5.24992 9.10669 5.25 9.38277C5.25018 9.83515 5.51158 10.2467 5.9209 10.4394L6.25488 10.5966C6.72682 10.8187 7.27318 10.8187 7.74512 10.5966L8.0791 10.4394C8.48842 10.2467 8.74982 9.83515 8.75 9.38277C8.74994 8.93023 8.48856 8.51787 8.0791 8.32515L6.78711 7.71675L6.32617 7.49995H8.65723ZM5.41406 3.00777C6.36478 2.33671 7.63522 2.33671 8.58594 3.00777L8.67285 3.06929C9.34797 3.54585 9.74995 4.32105 9.75 5.14742C9.74978 5.42337 9.52601 5.64742 9.25 5.64742C8.97399 5.64742 8.75022 5.42337 8.75 5.14742C8.74995 4.64597 8.50635 4.17488 8.09668 3.8857L8.00879 3.82417C7.40395 3.3975 6.59605 3.3975 5.99121 3.82417L5.90332 3.8857C5.49365 4.17488 5.25005 4.64597 5.25 5.14742C5.25004 5.2691 5.27003 5.38765 5.30566 5.49995H4.28027C4.26126 5.38457 4.25002 5.2668 4.25 5.14742C4.25005 4.32105 4.65203 3.54585 5.32715 3.06929L5.41406 3.00777Z" fill="red"/>
    <path d="M11 6.99999L3 6.99999" stroke="green" stroke-linecap="round"/>
</svg>
