<svg width="14" height="14" viewBox="0 0 14 14" fill="none"
    xmlns="http://www.w3.org/2000/svg">
    <path d="M5 11V11C3.77427 10.3871 3 9.13434 3 7.76393V6.23607C3 4.86566 3.77427 3.61287 5 3V3" stroke="green" stroke-linecap="round" stroke-linejoin="round"/>
    <path d="M9 11V11C10.2257 10.3871 11 9.13434 11 7.76393V6.23607C11 4.86566 10.2257 3.61287 9 3V3" stroke="green" stroke-linecap="round" stroke-linejoin="round"/>
    <path d="M5.62048 5.01416L5.80798 5.06983C6.39399 5.27033 6.79144 5.67887 6.99939 6.16065C7.22869 5.62897 7.68865 5.18664 8.37829 5.01416C8.64594 4.94739 8.91756 5.11092 8.98474 5.37842C9.05156 5.64625 8.8883 5.91791 8.62048 5.98487C7.56456 6.24926 7.56471 7.7496 8.62048 8.01416C8.88818 8.08109 9.05132 8.35291 8.98474 8.62061C8.9261 8.85516 8.71041 9.00975 8.4779 8.99952L8.37829 8.98487L8.19079 8.9292C7.60457 8.7285 7.20714 8.3205 6.99939 7.83838C6.77015 8.37037 6.31054 8.81239 5.62048 8.98487C5.35271 9.05156 5.08096 8.88837 5.01404 8.62061C4.94757 8.35302 5.11076 8.08115 5.37829 8.01416C6.40158 7.75822 6.43359 6.34167 5.474 6.01319L5.37829 5.98487L5.28259 5.95069C5.07324 5.85009 4.95561 5.61257 5.01404 5.37842C5.07278 5.1442 5.28862 4.98946 5.52087 4.99952L5.62048 5.01416Z" fill="red"/>
</svg>
