<svg width="14" height="14" viewBox="0 0 14 14" fill="none"
    xmlns="http://www.w3.org/2000/svg">
    <path d="M4.5 6V8.5C4.5 9.05228 4.94772 9.5 5.5 9.5H8" stroke="green" stroke-linejoin="round"/>
    <path d="M3 5V4C3 3.44772 3.44772 3 4 3H5C5.55228 3 6 3.44772 6 4V5C6 5.55228 5.55228 6 5 6H4C3.44772 6 3 5.55228 3 5Z" stroke="red" stroke-linejoin="round"/>
    <path d="M8 10V9C8 8.44772 8.44772 8 9 8H10C10.5523 8 11 8.44772 11 9V10C11 10.5523 10.5523 11 10 11H9C8.44772 11 8 10.5523 8 10Z" stroke="red" stroke-linejoin="round"/>
</svg>
