<svg xmlns="http://www.w3.org/2000/svg" width="16" height="16" fill="none" viewBox="0 0 14 14"><path fill="red" d="M7.872 2.5c.49 0 .975.114 1.413.333l.439.22a.5.5 0 0 1-.353.93l-.095-.036-.438-.22a2.16 2.16 0 0 0-1.563-.143c-1.384.396-2.14 1.908-1.61 3.23l.053.134a3.55 3.55 0 0 1-.541 3.552H10a.5.5 0 0 1 0 1H4a.5.5 0 0 1-.353-.146.5.5 0 0 1 0-.707l.579-.58c.72-.72.942-1.8.563-2.747l-.053-.133c-.754-1.888.325-4.01 2.265-4.564.281-.08.577-.123.871-.123"/><path stroke="green" stroke-linecap="round" d="M4 7h4"/></svg>