<svg xmlns="http://www.w3.org/2000/svg" width="16" height="16" fill="none" viewBox="0 0 14 14"><path fill="red" d="M2.514 5.385A.5.5 0 0 0 2.5 5.5v3A.5.5 0 0 0 3 9h3.13l1 1H3a1.5 1.5 0 0 1-1.5-1.5v-3c0-.32.1-.615.27-.858zM9.5 4A1.5 1.5 0 0 1 11 5.5v3c0 .32-.101.614-.271.858l-.744-.744A.5.5 0 0 0 10 8.5v-3a.5.5 0 0 0-.5-.5H6.371l-1-1zM12 6a.5.5 0 0 1 .5.5v1a.5.5 0 0 1-1 0v-1A.5.5 0 0 1 12 6"/><path fill="green" d="M5.129 8H4a.5.5 0 0 1-.5-.5v-1a.5.5 0 0 1 .014-.115zm3.37-2a.5.5 0 0 1 .5.5v1l-.01.1q-.001.007-.005.013L7.372 6z"/><path stroke="#00f" stroke-linecap="round" stroke-linejoin="round" d="m2.25 3 8 8"/></svg>