<svg xmlns="http://www.w3.org/2000/svg" width="16" height="16" fill="none" viewBox="0 0 14 14"><path fill="red" d="M7 2.5c1.26 0 2.37.827 2.731 2.033l.124.412c.096.32.145.652.145.986V8.07c0 .333-.049.666-.145.986l-.124.412a2.853 2.853 0 0 1-5.463 0l-.123-.412A3.4 3.4 0 0 1 4 8.071V5.93c0-.333.049-.666.145-.985l.123-.411A2.85 2.85 0 0 1 7 2.5M5 8.07c0 .237.035.473.103.699l.123.411a1.853 1.853 0 0 0 3.547.001l.124-.412Q9 8.427 9 8.069V7.5H5zM7 3.5c-.818 0-1.54.537-1.774 1.32l-.123.412A2.4 2.4 0 0 0 5 5.93v.57h4v-.569c0-.236-.035-.473-.103-.7l-.124-.411A1.85 1.85 0 0 0 7 3.5"/></svg>