<svg xmlns="http://www.w3.org/2000/svg" width="16" height="16" fill="none" viewBox="0 0 14 14"><path fill="url(#a)" stroke="red" stroke-linejoin="round" d="M3.603 4.461 6.5 2.79a1 1 0 0 1 1 0l2.897 1.672a1 1 0 0 1 .5.866v3.346a1 1 0 0 1-.5.866L7.5 11.21a1 1 0 0 1-1 0L3.603 9.54a1 1 0 0 1-.5-.866V5.327a1 1 0 0 1 .5-.866Z"/><defs><linearGradient id="a" x1="10.897" x2="3.103" y1="7" y2="7" gradientUnits="userSpaceOnUse"><stop offset=".255" stop-color="red" stop-opacity="0"/><stop offset="1" stop-color="red" stop-opacity=".5"/></linearGradient></defs></svg>