<svg xmlns="http://www.w3.org/2000/svg" width="16" height="16" fill="none" viewBox="0 0 14 14"><path fill="red" d="M6.42 3.06a2.035 2.035 0 0 1 1.933 3.412l-.142.142A2 2 0 0 1 9.25 8.368v.106c0 1.3-1.168 2.29-2.451 2.076l-1.049-.175v.993a.5.5 0 1 1-1 0V5.15c0-.982.668-1.84 1.621-2.077zm1.114 1.146a1.03 1.03 0 0 0-.87-.175l-.05.012A1.14 1.14 0 0 0 5.75 5.15v4.22l.082.005 1.13.189a1.105 1.105 0 0 0 1.288-1.09v-.106a1 1 0 0 0-1-1 .5.5 0 0 1-.099-.01l-.035-.01q-.03-.006-.057-.019-.02-.008-.04-.02a.5.5 0 0 1-.123-.795l.75-.748a1.035 1.035 0 0 0-.112-1.56"/></svg>