<svg xmlns="http://www.w3.org/2000/svg" width="16" height="16" fill="none" viewBox="0 0 14 14"><path fill="red" d="M8.836 2.496a1.5 1.5 0 0 1 1.06.44L11.56 4.6A1.5 1.5 0 0 1 12 5.66v5.336a1.5 1.5 0 0 1-1.5 1.5h-7a1.5 1.5 0 0 1-1.5-1.5v-7a1.5 1.5 0 0 1 1.5-1.5zm-5.336 1a.5.5 0 0 0-.5.5v7a.5.5 0 0 0 .5.5h.75v-4a.5.5 0 0 1 .5-.5h4.5a.5.5 0 0 1 .5.5v4h.75a.5.5 0 0 0 .5-.5V5.66a.5.5 0 0 0-.146-.353L9.189 3.643a.5.5 0 0 0-.353-.147H5.25V5.5H8v-1a.5.5 0 0 1 1 0V6a.5.5 0 0 1-.5.5H4.75a.5.5 0 0 1-.5-.5V3.496zm1.75 8h3.5v-3.5h-3.5z"/></svg>