<svg xmlns="http://www.w3.org/2000/svg" width="16" height="16" fill="none" viewBox="0 0 14 14"><path fill="red" d="M3 5.121v5.875a.5.5 0 0 0 .5.5h.75v-4a.5.5 0 0 1 .5-.5h.125l1 1H5.25v3.5h3.5v-.625l1.625 1.625H3.5a1.5 1.5 0 0 1-1.5-1.5V4.121zm5.836-2.625a1.5 1.5 0 0 1 1.06.44L11.56 4.6A1.5 1.5 0 0 1 12 5.66v4.22l-1-1V5.66a.5.5 0 0 0-.146-.353L9.189 3.643a.5.5 0 0 0-.353-.147H5.617l-1-1zm.414 4.5a.5.5 0 0 1 .5.5v.133l-.633-.633zM8.5 4a.5.5 0 0 1 .5.5V6a.5.5 0 0 1-.392.487L7.621 5.5H8v-1a.5.5 0 0 1 .5-.5"/><path stroke="green" stroke-linecap="round" stroke-linejoin="round" d="m3 3 8 8"/></svg>