<svg xmlns="http://www.w3.org/2000/svg" width="16" height="16" fill="none" viewBox="0 0 14 14"><path fill="red" d="M6.866 3.018a.5.5 0 1 1 .267.963c-2.045.569-2.045 3.47 0 4.037a.5.5 0 1 1-.268.963C5.989 8.737 5.368 8.201 5 7.546c-.368.656-.988 1.192-1.865 1.435a.5.5 0 0 1-.268-.963c2.046-.568 2.046-3.468 0-4.037a.5.5 0 1 1 .268-.963c.877.244 1.497.78 1.865 1.435.368-.656.99-1.19 1.867-1.435"/><path fill="green" d="M11 8a.5.5 0 0 1 .5.5v2a.5.5 0 0 1-.854.352 1.5 1.5 0 1 1 0-2.704A.5.5 0 0 1 11 8m-1 1a.5.5 0 1 0 0 1 .5.5 0 0 0 0-1"/></svg>