<svg xmlns="http://www.w3.org/2000/svg" width="16" height="16" fill="none" viewBox="0 0 14 14"><path stroke="red" d="M9.25 3.5h-4.5a1 1 0 0 0-1 1v1.146a.354.354 0 0 1-.604.25L3 5.75a.85.85 0 0 0-.604-.25H2.25a1 1 0 0 0-1 1v1a1 1 0 0 0 1 1h.146c.227 0 .444-.09.604-.25l.146-.146a.354.354 0 0 1 .604.25V9.5a1 1 0 0 0 1 1h4.5a1 1 0 0 0 1-1V8.354a.354.354 0 0 1 .604-.25L11 8.25c.16.16.377.25.604.25h.146a1 1 0 0 0 1-1v-1a1 1 0 0 0-1-1h-.146a.85.85 0 0 0-.604.25l-.146.146a.354.354 0 0 1-.604-.25V4.5a1 1 0 0 0-1-1Z"/></svg>