<svg xmlns="http://www.w3.org/2000/svg" width="16" height="16" fill="none" viewBox="0 0 14 14"><path stroke="green" stroke-linecap="round" stroke-linejoin="round" d="M4 10.903 7 7l2 2 3-3"/><path fill="red" d="M11 2.5A1.5 1.5 0 0 1 12.5 4v4.087a1.5 1.5 0 0 0-1 0V4a.5.5 0 0 0-.5-.5H3a.5.5 0 0 0-.5.5v6a.5.5 0 0 0 .5.5h6.087A1.5 1.5 0 0 0 9 11l.008.153q.02.181.079.347H3A1.5 1.5 0 0 1 1.5 10V4A1.5 1.5 0 0 1 3 2.5z"/><path stroke="green" stroke-linecap="round" stroke-linejoin="round" d="M3.5 5.5a1 1 0 1 0 2 0 1 1 0 0 0-2 0"/><path stroke="red" stroke-linecap="round" d="M10.5 11h3M12 9.5v3"/></svg>