<svg xmlns="http://www.w3.org/2000/svg" width="14" height="14" fill="none" viewBox="0 0 14 14"><path fill="red" d="M6.866 5.018a.5.5 0 1 1 .267.963c-1.98.551-2.043 3.29-.185 3.977l.185.06.095.037a.5.5 0 0 1-.362.926c-.878-.243-1.499-.78-1.867-1.435-.368.656-.988 1.192-1.865 1.435a.5.5 0 0 1-.362-.926l.095-.037.185-.06c1.857-.687 1.796-3.426-.186-3.977a.5.5 0 1 1 .268-.963c.877.244 1.497.78 1.865 1.435.368-.656.99-1.19 1.867-1.435"/><path fill="green" d="M11 3a.5.5 0 0 1 .5.5v2a.5.5 0 0 1-.854.352 1.5 1.5 0 1 1 0-2.704A.5.5 0 0 1 11 3m-1 1a.5.5 0 1 0 0 1 .5.5 0 0 0 0-1"/></svg>