<svg xmlns="http://www.w3.org/2000/svg" width="14" height="14" fill="none" viewBox="0 0 14 14"><path fill="red" d="M4.318 3.505a4.324 4.324 0 0 1 5.368-.03 4.31 4.31 0 0 1 1.043 5.586L9.878 10.5H11a.5.5 0 0 1 0 1H9q-.015 0-.028-.003a.5.5 0 0 1-.155-.033l-.039-.018-.033-.015-.013-.01q-.023-.016-.044-.033l-.033-.027-.03-.034q-.019-.02-.035-.042l-.02-.032q-.016-.025-.027-.05l-.016-.045q-.008-.021-.013-.044-.005-.026-.008-.053-.004-.023-.005-.047L8.5 11l.002-.028a.5.5 0 0 1 .033-.155l.004-.011.03-.06 1.3-2.195a3.31 3.31 0 0 0-.803-4.29 3.32 3.32 0 0 0-4.123.025 3.35 3.35 0 0 0-.788 4.335l1.274 2.122.01.023q.016.027.027.055l.006.013q.005.017.008.035l.01.04q.017.09.001.18l-.009.035a.5.5 0 0 1-.142.24q-.016.015-.033.028l-.042.03-.008.007-.03.013q-.021.012-.043.022-.026.009-.052.015-.02.007-.037.011a.5.5 0 0 1-.091.009L5 11.5H3a.5.5 0 0 1 0-1h1.117l-.82-1.364a4.354 4.354 0 0 1 1.021-5.631"/></svg>