<svg xmlns="http://www.w3.org/2000/svg" width="16" height="16" fill="none" viewBox="0 0 14 14"><path fill="red" d="M7.991 2.5a3.28 3.28 0 0 1 2.308.946c.36.356.643.798.81 1.301l.223.668c.05.147.155.268.293.338.536.269.875.817.875 1.417v.475a2.35 2.35 0 0 1-1 1.923v.932a1 1 0 1 1-2 0V10h-5v.5a1 1 0 1 1-2 0v-.932a2.35 2.35 0 0 1-1-1.923V7.17c0-.6.339-1.148.875-1.417a.6.6 0 0 0 .292-.338l.223-.668A3.28 3.28 0 0 1 6.009 2.5zM2.738 6.7a.59.59 0 0 0-.238.47v.475C2.5 8.393 3.107 9 3.855 9h6.29c.748 0 1.355-.607 1.355-1.355V7.17c0-.188-.09-.36-.238-.47zm3.27-3.2a2.29 2.29 0 0 0-2.17 1.563l-.211.637h6.746l-.212-.637A2.29 2.29 0 0 0 7.991 3.5z"/><path stroke="red" stroke-linecap="round" d="M5 7.75h4"/><circle cx="3.5" cy="7.749" r=".5" fill="red"/><circle cx="10.5" cy="7.75" r=".5" fill="red"/></svg>