<svg width="14" height="14" viewBox="0 0 14 14" fill="none" xmlns="http://www.w3.org/2000/svg">
<path d="M9.10071 3.50977C9.3286 3.55635 9.50012 3.75834 9.50012 4C9.50012 4.24166 9.3286 4.44365 9.10071 4.49023L9.00012 4.5H5.72766C5.58365 4.5 5.45305 4.58516 5.39465 4.7168C5.30026 4.92992 5.42778 5.17596 5.65637 5.22168L7.06458 5.50293C8.41541 5.53721 9.50012 6.6409 9.50012 8C9.50012 9.38067 8.38077 10.4999 7.00012 10.5C5.61941 10.5 4.50012 9.38071 4.50012 8C4.50012 7.27231 4.8125 6.61898 5.30872 6.16211C4.54899 5.91883 4.14814 5.06154 4.48059 4.31152C4.69931 3.81836 5.18817 3.5 5.72766 3.5H9.00012L9.10071 3.50977ZM7.00012 6.5C6.1717 6.5 5.50012 7.17157 5.50012 8C5.50012 8.82843 6.1717 9.5 7.00012 9.5C7.82849 9.49993 8.50012 8.82838 8.50012 8C8.50012 7.17162 7.82849 6.50007 7.00012 6.5Z" fill="red"/>
</svg>
