<svg width="14" height="14" viewBox="0 0 14 14" fill="none" xmlns="http://www.w3.org/2000/svg">
<path d="M6.99996 2.5C7.18932 2.5 7.36251 2.60701 7.44722 2.77637L11.4472 10.7764C11.5247 10.9312 11.5167 11.1153 11.4257 11.2627C11.3687 11.3549 11.2842 11.4246 11.1865 11.4639C11.1476 11.4795 11.1066 11.4906 11.0644 11.4961C11.0432 11.4988 11.0216 11.5 11 11.5H2.99995C2.82672 11.5 2.66525 11.4101 2.57417 11.2627C2.48331 11.1154 2.47529 10.9312 2.55269 10.7764L6.55269 2.77637L6.58882 2.71582C6.68128 2.58201 6.83437 2.50005 6.99996 2.5ZM3.80855 10.5H9.19136L6.49898 5.11719L3.80855 10.5Z" fill="red"/>
</svg>
