<svg xmlns="http://www.w3.org/2000/svg" width="14" height="14" fill="none" viewBox="0 0 14 14"><path fill="red" d="M3.715 5.836A5.4 5.4 0 0 0 2.6 7c1.101 1.558 2.832 2.31 4.544 2.266l.915.915c-2.412.399-5.017-.571-6.483-2.916l-.016-.03a.5.5 0 0 1-.039-.1l-.01-.037a.5.5 0 0 1 .045-.326l.02-.037c.4-.64.886-1.175 1.428-1.61zm2.224-2.018c2.284-.378 4.741.472 6.24 2.553l.245.364.011.025.027.053.007.013.01.038.01.031.007.06.003.034a.5.5 0 0 1-.03.18l-.007.016-.034.068-.004.012a6.5 6.5 0 0 1-1.428 1.61l-.714-.714A5.4 5.4 0 0 0 11.398 7l-.028-.042c-1.102-1.53-2.819-2.271-4.517-2.226z"/><path stroke="green" stroke-linecap="round" stroke-linejoin="round" d="m3 3 8 8"/></svg>