<svg width="14" height="14" viewBox="0 0 14 14" fill="none"
    xmlns="http://www.w3.org/2000/svg">
    <path d="M5 2.5H3V11.5H5" stroke="green" stroke-linecap="round" stroke-linejoin="round"/>
    <path d="M9 2.5H11V11.5H9" stroke="green" stroke-linecap="round" stroke-linejoin="round"/>
    <path d="M6 8.99896C6 9.55125 6.44772 9.99896 7 9.99896C7.55228 9.99896 8 9.55125 8 8.99896C8 8.44668 7.55228 7.99896 7 7.99896C6.44772 7.99896 6 8.44668 6 8.99896Z" stroke="red" stroke-linecap="round" stroke-linejoin="round"/>
    <path d="M6 5C6 5.55228 6.44772 6 7 6C7.55228 6 8 5.55228 8 5C8 4.44772 7.55228 4 7 4C6.44772 4 6 4.44772 6 5Z" stroke="red" stroke-linecap="round" stroke-linejoin="round"/>
</svg>
