<svg width="14" height="14" viewBox="0 0 14 14" fill="none"
    xmlns="http://www.w3.org/2000/svg">
    <path d="M7 4C8.38071 4 9.5 5.11929 9.5 6.5C9.5 7.21149 9.20069 7.85137 8.72363 8.30664C9.3449 8.53318 9.93672 8.88478 10.4648 9.36328L10.1289 9.7334L9.79395 10.1045C8.16911 8.63233 5.83189 8.63238 4.20703 10.1045L3.87109 9.7334L3.53516 9.36328C4.06309 8.88497 4.65438 8.53317 5.27539 8.30664C4.79864 7.8514 4.5 7.21124 4.5 6.5C4.5 5.11929 5.61929 4 7 4ZM7 5C6.17157 5 5.5 5.67157 5.5 6.5C5.5 7.32843 6.17157 8 7 8C7.82843 8 8.5 7.32843 8.5 6.5C8.5 5.67157 7.82843 5 7 5Z" fill="red"/>
    <circle cx="7" cy="7" r="4.5" stroke="green"/>
</svg>
