<svg xmlns="http://www.w3.org/2000/svg" width="14" height="14" fill="none" viewBox="0 0 14 14"><path fill="green" d="M8.85 8.264c1.436.1 2.842.82 3.853 2.16l.213.299.048.09a.5.5 0 0 1-.815.543l-.065-.078-.174-.246a4.6 4.6 0 0 0-1.463-1.279l-.204-.255a6.6 6.6 0 0 0-1.392-1.234M8.5 2.5a2.5 2.5 0 1 1-.443 4.958q.04-.04.078-.081c.245-.273.434-.576.575-.894a1.499 1.499 0 0 0-.004-2.968 3.4 3.4 0 0 0-.576-.893l-.077-.081q.217-.04.447-.041"/><circle cx="5.5" cy="5" r="2" stroke="red"/><path stroke="red" stroke-linecap="round" d="M1.5 11c2-3 6-3 8 0"/></svg>