<svg width="14" height="14" viewBox="0 0 14 14" fill="none"
    xmlns="http://www.w3.org/2000/svg">
    <path d="M2.5 5V10C2.5 10.5523 2.94772 11 3.5 11H10.5C11.0523 11 11.5 10.5523 11.5 10V6C11.5 5.44772 11.0523 5 10.5 5H6.5M2.5 5V4.5C2.5 3.94772 2.94772 3.5 3.5 3.5H5.5C6.05228 3.5 6.5 3.94772 6.5 4.5V5M2.5 5H6.5" stroke="red" stroke-linecap="round" stroke-linejoin="round"/>
    <path d="M5.49931 9.49542L5.87397 8.74644M8.50067 9.49542L8.12601 8.74644M5.87397 8.74644L6.99999 6.49542L8.12601 8.74644M5.87397 8.74644H8.12601" stroke="green" stroke-linecap="round" stroke-linejoin="round"/>
</svg>
