<svg xmlns="http://www.w3.org/2000/svg" width="16" height="16" fill="none" viewBox="0 0 14 14"><path fill="red" d="M8.052 1.001A5 5 0 0 1 11.89 9.14c.07-.37.11-.75.11-1.14 0-.378-.038-.747-.104-1.105q.045-.195.072-.395h-.156a6 6 0 0 0-.358-1h.514a4 4 0 0 0-.102-.527l-.428-.1q-.18-.038-.364-.074a6 6 0 0 0-1.84-1.852q-.032-.174-.069-.347l-.107-.458a4 4 0 0 0-.52-.106v.527a6 6 0 0 0-1-.364v-.173a4 4 0 0 0-.435.077 6 6 0 0 0-2.244.006A4.98 4.98 0 0 1 8 1h.038zm2.143 1.656q.102.504.172 1.012.5.07.997.169a4 4 0 0 0-1.169-1.18"/><path fill="red" d="M6.052 3.001a5 5 0 0 1 0 9.997L6.038 13l-.009-.001L6 13A5 5 0 0 1 6 3h.038zm-1.32 7.439q.075.482.18.96l.111.479q.252.063.515.094v-1.489a17 17 0 0 1-.806-.044m2.609 0q-.402.032-.803.044v1.479q.265-.037.52-.106.174-.704.283-1.417m-4.717-.296a4 4 0 0 0 1.266 1.254q-.11-.532-.183-1.068-.543-.076-1.083-.186m6.74.017q-.495.1-.997.17a17 17 0 0 1-.17 1.01c.466-.308.865-.71 1.167-1.18M4.554 8.5q.015.464.056.926.464.041.928.056V8.5zm1.984.982q.465-.015.926-.055.042-.463.057-.927h-.983zM8.521 8.5a17 17 0 0 1-.042.805q.48-.075.96-.178l.427-.1a4 4 0 0 0 .102-.527zm-6.489 0q.032.261.096.51l.031.005q.715.177 1.438.288-.031-.402-.044-.803zm6.446-1.806q.03.403.043.806h1.447a4 4 0 0 0-.102-.527l-.428-.1q-.478-.105-.96-.179m-4.881.002a16 16 0 0 0-1.438.29l-.031.003a4 4 0 0 0-.096.511h1.52q.013-.402.045-.804m1.941-.18q-.465.016-.928.057-.041.464-.055.927h.983zm1 .984h.983q-.016-.465-.057-.928a16 16 0 0 0-.926-.055zM3.89 4.602a4 4 0 0 0-1.266 1.253q.54-.11 1.083-.186.074-.536.183-1.067m4.305.055q.102.504.172 1.012.5.07.997.169a4 4 0 0 0-1.169-1.18m-2.657-.63q-.263.03-.515.093v.001q-.178.714-.29 1.439a17 17 0 0 1 .805-.045zm1 1.488q.402.013.804.045-.074-.483-.177-.96l-.107-.458a4 4 0 0 0-.52-.106z"/><path fill="green" d="M2 .5q.048 0 .093.009l.036.01q.027.006.054.016l.035.017a.5.5 0 0 1 .12.082.5.5 0 0 1 .113.155l.01.019q.019.044.03.091l.019.202c.04.195.194.35.39.39l.2.019a.5.5 0 0 1 .091.028l.019.01a.5.5 0 0 1 .213.187q.014.022.024.046l.017.035q.01.027.016.054l.01.036a.5.5 0 0 1 0 .187q-.003.018-.01.036l-.016.054-.017.035a.5.5 0 0 1-.082.12.5.5 0 0 1-.155.113l-.019.01a.5.5 0 0 1-.09.03l-.202.019a.5.5 0 0 0-.39.39l-.019.2a.5.5 0 0 1-.03.091l-.009.019a.5.5 0 0 1-.233.237l-.035.017-.054.016-.036.01a.5.5 0 0 1-.187 0q-.018-.003-.036-.01-.027-.006-.054-.016l-.035-.017-.046-.024a.5.5 0 0 1-.187-.213l-.01-.019a.5.5 0 0 1-.028-.09l-.02-.202a.5.5 0 0 0-.39-.39L.9 2.49a.5.5 0 0 1-.092-.03l-.019-.009a.5.5 0 0 1-.213-.187l-.024-.046-.017-.035-.016-.054q-.007-.018-.01-.036a.5.5 0 0 1 0-.187l.01-.036q.006-.027.016-.054l.017-.035a.5.5 0 0 1 .082-.12.5.5 0 0 1 .155-.113l.019-.01a.5.5 0 0 1 .091-.028l.202-.02a.5.5 0 0 0 .39-.39L1.51.9a.5.5 0 0 1 .028-.092l.01-.019a.5.5 0 0 1 .187-.213l.046-.024.035-.017q.027-.01.054-.016.018-.007.036-.01A.5.5 0 0 1 2 .5"/></svg>