<svg xmlns="http://www.w3.org/2000/svg" width="14" height="14" fill="none" viewBox="0 0 14 14"><path fill="red" d="M6.264 2.751a5 5 0 0 1 0 9.997l-.014.002-.008-.001-.03.001a5 5 0 0 1 0-10h.038zm-1.32 7.439q.075.482.18.96l.112.479q.252.063.514.094v-1.489a17 17 0 0 1-.805-.044m2.61 0q-.402.032-.804.044v1.479q.266-.037.52-.106.174-.704.283-1.417m-4.718-.296c.323.506.756.936 1.266 1.254q-.108-.532-.183-1.068-.543-.076-1.083-.186m6.74.017q-.495.1-.997.17a17 17 0 0 1-.17 1.01c.466-.308.865-.71 1.168-1.18M4.768 8.25q.014.464.056.926.463.041.927.056V8.25zm1.983.982q.465-.015.926-.055.042-.463.057-.927H6.75zm1.984-.982a17 17 0 0 1-.043.805q.48-.075.96-.178l.428-.1a4 4 0 0 0 .101-.527zm-6.49 0q.032.261.096.51l.031.005q.715.177 1.438.288-.031-.402-.044-.803zM8.69 6.444q.03.403.043.806h1.447a4 4 0 0 0-.101-.527l-.428-.1q-.479-.105-.961-.179m-4.881.002a16 16 0 0 0-1.438.29l-.03.003a4 4 0 0 0-.096.511h1.52q.012-.402.044-.804m1.941-.18q-.465.016-.927.057-.042.464-.056.927h.983zm1 .984h.983q-.016-.465-.057-.928a16 16 0 0 0-.926-.055zM4.102 4.352a4 4 0 0 0-1.266 1.253q.54-.11 1.083-.186.074-.536.183-1.067m4.306.055q.101.504.171 1.012.5.07.998.169a4 4 0 0 0-1.17-1.18m-2.658-.63q-.263.03-.514.093v.001q-.18.714-.29 1.439a17 17 0 0 1 .804-.045zm1 1.488q.403.013.804.045-.074-.483-.177-.96l-.107-.458a4 4 0 0 0-.52-.106z"/><path fill="green" d="M11.338 1.258h.004l.04.012.051.015.035.017a.5.5 0 0 1 .12.082 1 1 0 0 1 .064.072l.015.02q.052.078.074.173l.02.202c.04.195.193.35.389.39l.201.019q.046.01.088.027l.03.015a.5.5 0 0 1 .121.083l.025.025.038.046.016.023q.02.032.035.066l.007.015q.039.087.04.19l-.008.089a.5.5 0 0 1-.032.1l-.007.015-.035.066-.014.02-.038.048-.027.025a.5.5 0 0 1-.122.084l-.03.015a.5.5 0 0 1-.087.028l-.201.02a.5.5 0 0 0-.39.39l-.02.2a.5.5 0 0 1-.073.172l-.015.021a.5.5 0 0 1-.138.13q-.022.014-.046.024l-.035.017-.05.015q-.02.007-.04.011a.5.5 0 0 1-.093.01l-.088-.008-.005-.002-.04-.01-.051-.016q-.02-.008-.04-.019-.018-.008-.036-.02a.5.5 0 0 1-.101-.081l-.044-.053-.014-.019a.5.5 0 0 1-.07-.171l-.02-.202a.5.5 0 0 0-.39-.39l-.1-.009-.102-.01q-.007-.001-.016-.005l-.073-.023-.03-.015-.048-.026q-.019-.012-.036-.026l-.036-.03-.026-.027-.037-.045-.019-.025-.03-.057-.012-.027q-.01-.027-.017-.055l-.01-.036a.5.5 0 0 1 0-.187l.01-.036q.007-.027.017-.055l.012-.027.03-.057.02-.025.036-.045.026-.026q.016-.015.036-.03l.036-.027.049-.026.029-.015a.5.5 0 0 1 .19-.037l.101-.01a.5.5 0 0 0 .39-.39l.02-.2a.5.5 0 0 1 .06-.159l.014-.02.01-.013a.5.5 0 0 1 .105-.106l.04-.029.037-.02.039-.018.05-.015q.02-.007.04-.011a.5.5 0 0 1 .094-.009z"/></svg>