<svg xmlns="http://www.w3.org/2000/svg" width="16" height="16" fill="none" viewBox="0 0 14 14"><path fill="red" d="M8.646 3.647a.5.5 0 0 1 .708 0l.274.274A4.68 4.68 0 0 1 11 7.233v.616c0 .523-.155 1.035-.445 1.47l-.17.255a2.08 2.08 0 0 1-3.201.317l-.038-.037A2 2 0 0 1 7 9.69q-.07.084-.146.163l-.038.037a2.08 2.08 0 0 1-3.2-.317l-.17-.255A2.65 2.65 0 0 1 3 7.85v-.616c0-1.242.494-2.434 1.372-3.312l.274-.274a.5.5 0 1 1 .708.707l-.275.274A3.7 3.7 0 0 0 4 7.233v.616c0 .326.097.644.277.916l.17.255a1.08 1.08 0 0 0 1.662.164l.037-.037c.227-.227.354-.534.354-.854V7a.5.5 0 0 1 .5-.5l.1.01a.5.5 0 0 1 .4.49v1.293c0 .32.127.627.354.854l.037.037a1.08 1.08 0 0 0 1.662-.164l.17-.255c.18-.272.277-.59.277-.916v-.616a3.68 3.68 0 0 0-1.08-2.605l-.274-.274a.5.5 0 0 1 0-.707"/></svg>