<svg width="14" height="14" viewBox="0 0 14 14" fill="none"
    xmlns="http://www.w3.org/2000/svg">
    <circle cx="7" cy="7" r="4.5" stroke="green"/>
    <path d="M7.00026 3.5C7.27629 3.50014 7.50026 3.72394 7.50026 4V7C7.50026 7.00888 7.49779 7.0176 7.49733 7.02637C7.49632 7.0457 7.49379 7.06472 7.4905 7.08398C7.48829 7.09698 7.4849 7.10944 7.48171 7.12207C7.47685 7.1412 7.47137 7.15998 7.46413 7.17871C7.45884 7.19245 7.45299 7.20563 7.44655 7.21875C7.44158 7.22886 7.4386 7.2401 7.43288 7.25L6.43288 8.98242C6.29475 9.22125 5.98927 9.3029 5.75026 9.16504C5.51125 9.02705 5.42893 8.72151 5.56667 8.48242L6.50026 6.86426V4C6.50026 3.72386 6.72412 3.5 7.00026 3.5Z" fill="red"/>
</svg>
