<svg xmlns="http://www.w3.org/2000/svg" width="16" height="16" fill="none" viewBox="0 0 14 14"><path fill="red" d="M7 3.5a.5.5 0 0 1 .5.5v2.71l1.482.857a.5.5 0 0 1-.5.866l-1.732-1-.01-.008-.049-.034-.034-.029q-.018-.018-.035-.039-.015-.015-.027-.031-.016-.023-.029-.048l-.02-.037q-.01-.021-.017-.044l-.015-.05q-.005-.02-.007-.043L6.5 7.016V4a.5.5 0 0 1 .5-.5"/><path fill="green" d="M7 2a5 5 0 0 1 4.567 7.035h-1.124a4 4 0 1 0-2.882 1.925c.111.376.366.689.7.879A5 5 0 1 1 7 2"/><path stroke="#00f" stroke-linecap="round" d="M9 10.535h3"/></svg>