<svg width="14" height="14" viewBox="0 0 14 14" fill="none"
    xmlns="http://www.w3.org/2000/svg">
    <circle cx="7" cy="7" r="4.5" stroke="green"/>
    <path d="M7 3.5C7.27614 3.5 7.5 3.72386 7.5 4V6.86621L8.43262 8.48242C8.5706 8.72155 8.4891 9.02699 8.25 9.16504C8.011 9.30302 7.70558 9.22122 7.56738 8.98242L6.56738 7.25C6.56361 7.24347 6.56106 7.23612 6.55762 7.22949C6.54789 7.21078 6.53859 7.19188 6.53125 7.17188C6.52651 7.15901 6.52315 7.14587 6.51953 7.13281C6.5145 7.11456 6.50979 7.09618 6.50684 7.07715C6.5044 7.06155 6.50387 7.04592 6.50293 7.03027C6.50233 7.02022 6.5 7.01021 6.5 7V4C6.5 3.72386 6.72386 3.5 7 3.5Z" fill="red"/>
</svg>
