<svg xmlns="http://www.w3.org/2000/svg" width="16" height="16" fill="none" viewBox="0 0 14 14"><circle cx="7" cy="7" r="4.5" stroke="green"/><path fill="red" d="M7 3.5a.5.5 0 0 1 .5.5v3l-.002.015q0 .03-.007.06l-.005.037q-.008.03-.019.058l-.012.032a.5.5 0 0 1-.08.125l-.033.035q-.015.015-.034.029l-.048.034-.01.008-.02.008-.058.027q-.02.007-.039.011l-.056.013q-.022.003-.046.004l-.03.004-.017-.002-.055-.006q-.023-.002-.044-.007-.024-.006-.047-.014-.024-.008-.049-.019a.5.5 0 0 1-.085-.05l-.024-.021q-.023-.018-.043-.04l-.033-.04q-.016-.016-.028-.036l-.01-.015-1-1.732a.5.5 0 0 1 .867-.5l.067.116V4a.5.5 0 0 1 .5-.5"/></svg>