<svg xmlns="http://www.w3.org/2000/svg" width="14" height="14" fill="none" viewBox="0 0 14 14"><circle cx="7" cy="7" r="4.5" stroke="green"/><path fill="red" d="M7 3.5a.5.5 0 0 1 .5.5v2.134l.982-.567a.5.5 0 1 1 .5.866l-1.732 1-.02.008-.058.027q-.02.007-.04.011l-.055.013q-.023.003-.047.004L7 7.5l-.017-.002-.054-.006q-.023-.002-.043-.007l-.05-.015q-.023-.007-.044-.017l-.037-.02-.048-.029-.031-.027-.04-.035-.028-.034-.034-.048-.007-.01-.01-.02-.026-.058-.011-.04-.013-.055q-.004-.023-.004-.047L6.5 7V4a.5.5 0 0 1 .5-.5"/></svg>