<svg xmlns="http://www.w3.org/2000/svg" width="16" height="16" fill="none" viewBox="0 0 14 14"><path fill="red" d="M8.646 2.65a.5.5 0 0 1 .708 0l2.353 2.354-1.998 1.998L11.707 9l-2.353 2.353a.5.5 0 0 1-.708-.707L9.793 9.5H5a.5.5 0 0 1 0-1h4.793L8.668 7.375l-.022-.018a.5.5 0 0 1-.122-.205q-.006-.016-.01-.033l-.005-.02-.003-.03a.5.5 0 0 1 0-.146l.006-.028a.5.5 0 0 1 .134-.249l.021-.017 1.126-1.125H5a.5.5 0 0 1 0-1h4.793L8.646 3.357l-.064-.078a.5.5 0 0 1 .064-.629"/><path stroke="green" stroke-linecap="round" stroke-linejoin="round" d="M3 3.004v7.992"/></svg>