<svg xmlns="http://www.w3.org/2000/svg" width="16" height="16" fill="none" viewBox="0 0 14 14"><path fill="red" d="M9 2.5a.5.5 0 0 1 .5.5v4.793l1.146-1.147a.5.5 0 1 1 .707.708L9 9.707l-2-2-2 2-2.353-2.353a.5.5 0 0 1 .628-.772l.079.064L4.5 7.793V3a.5.5 0 0 1 1 0v4.793l1.147-1.147a.5.5 0 0 1 .159-.107l.022-.008a.5.5 0 0 1 .246-.024l.03.004.078.023.007.003q.046.018.086.045l.079.064L8.5 7.793V3a.5.5 0 0 1 .5-.5"/><path stroke="green" stroke-linecap="round" stroke-linejoin="round" d="M3 11h8"/></svg>