<svg xmlns="http://www.w3.org/2000/svg" width="16" height="16" fill="none" viewBox="0 0 14 14"><path fill="red" d="M10.223 2.084a.5.5 0 0 1 .554.832c-.33.22-.527.59-.527.985v.564A2.535 2.535 0 0 1 7.715 7H7.5v3.5H8a.5.5 0 0 1 0 1H6a.5.5 0 0 1 0-1h.5V7h-.215A2.537 2.537 0 0 1 3.75 4.465V3.9c0-.396-.198-.766-.528-.985a.5.5 0 0 1 .555-.832c.608.405.973 1.087.973 1.817v.564A1.536 1.536 0 0 0 6.285 6H6.5V3.5H6a.5.5 0 0 1 0-1h2a.5.5 0 0 1 0 1h-.5V6h.215q.214 0 .422-.059A1.536 1.536 0 0 0 9.25 4.465V3.9c0-.73.365-1.412.973-1.817"/></svg>