<svg xmlns="http://www.w3.org/2000/svg" width="16" height="16" fill="none" viewBox="0 0 14 14"><path fill="red" d="M7 2a.5.5 0 0 1 .5.5v6.94a2.2 2.2 0 0 0 1.37-.978l.03-.046c.228-.366.35-.79.35-1.22V6.4c0-.73.365-1.412.972-1.817a.5.5 0 0 1 .555.832c-.33.22-.527.59-.527.985v.795c0 .62-.174 1.226-.502 1.751l-.03.046A3.2 3.2 0 0 1 7.5 10.459v1.04a.5.5 0 0 1-1 0v-1.04a3.2 3.2 0 0 1-2.22-1.466l-.03-.046a3.3 3.3 0 0 1-.501-1.752v-.794c0-.396-.198-.766-.528-.985a.5.5 0 0 1 .555-.832c.608.405.973 1.087.973 1.817v.794c0 .432.122.856.35 1.222l.029.046c.313.5.809.847 1.37.978V2.5A.5.5 0 0 1 7 2"/></svg>