<svg xmlns="http://www.w3.org/2000/svg" width="16" height="16" fill="none" viewBox="0 0 14 14"><path fill="red" d="M10.694 5.003a.5.5 0 0 1 .301.933l-.093.04-.168.061c-1.62.672-1.62 3.004 0 3.676l.168.06a.5.5 0 0 1-.208.974l-.098-.021a2.92 2.92 0 0 1-1.722-1.417 2.92 2.92 0 0 1-1.722 1.417l-.098.021a.5.5 0 0 1-.208-.974l.168-.06c1.62-.672 1.62-3.005 0-3.676l-.168-.061-.093-.04a.5.5 0 0 1 .3-.933l.1.021.25.092A2.9 2.9 0 0 1 8.874 6.44a2.9 2.9 0 0 1 1.47-1.324l.252-.092z"/><path stroke="green" stroke-linecap="round" stroke-linejoin="round" d="m2.5 7 1 4 2-8h6"/></svg>