<svg width="14" height="14" viewBox="0 0 14 14" fill="none"
    xmlns="http://www.w3.org/2000/svg">
    <path d="M7.85621 9.97748C7.81034 9.96378 7.76552 9.94508 7.72438 9.91791L7.64625 9.85346L7.57692 9.79096C7.21784 9.4981 6.68799 9.51875 6.35328 9.85346C6.15802 10.0487 5.8415 10.0487 5.64625 9.85346C5.45118 9.65819 5.45109 9.34163 5.64625 9.14643C5.89801 8.89467 6.2025 8.72764 6.52418 8.64545L7.85621 9.97748ZM5.46461 7.58588C5.06172 7.76693 4.68414 8.0226 4.35328 8.35346C4.15802 8.54868 3.8415 8.5487 3.64625 8.35346C3.45118 8.15819 3.45109 7.84163 3.64625 7.64643C3.9724 7.32028 4.33454 7.05203 4.71949 6.84076L5.46461 7.58588ZM8.68922 6.5683C9.22394 6.77179 9.72957 7.07462 10.1765 7.47846L10.3533 7.64643L10.4177 7.72455C10.5304 7.89515 10.5264 8.11916 10.408 8.28705L8.68922 6.5683ZM5.93434 3.81342C8.03937 3.54841 10.2229 4.07141 12.0173 5.38373L12.3123 5.60932L12.3845 5.68061C12.5332 5.85934 12.5413 6.12383 12.3904 6.31244C12.2394 6.50117 11.9793 6.55133 11.7722 6.44525L11.6873 6.39057L11.4275 6.19135C10.0731 5.20077 8.46748 4.72012 6.86891 4.74799L5.93434 3.81342ZM3.49391 5.61518C3.08248 5.83282 2.68654 6.09115 2.31227 6.39057C2.09664 6.56301 1.78163 6.52804 1.60914 6.31244C1.43683 6.09684 1.47176 5.78178 1.68727 5.60932C2.02941 5.3356 2.38816 5.09323 2.75856 4.87982L3.49391 5.61518Z" fill="red"/>
    <path d="M2.99988 2.99915L10.9999 10.9991" stroke="green" stroke-linecap="round" stroke-linejoin="round"/>
</svg>
