<svg xmlns="http://www.w3.org/2000/svg" width="14" height="14" fill="none" viewBox="0 0 14 14"><path fill="url(#a)" stroke="red" d="M8.45 2.5h-2.9a1 1 0 0 0-.707.293l-2.05 2.05a1 1 0 0 0-.293.707v2.9a1 1 0 0 0 .293.707l2.05 2.05a1 1 0 0 0 .707.293h2.9a1 1 0 0 0 .707-.293l2.05-2.05a1 1 0 0 0 .293-.707v-2.9a1 1 0 0 0-.293-.707l-2.05-2.05A1 1 0 0 0 8.45 2.5Z"/><defs><linearGradient id="a" x1="11.5" x2="2.5" y1="7" y2="7" gradientUnits="userSpaceOnUse"><stop offset=".255" stop-color="red" stop-opacity="0"/><stop offset="1" stop-color="red" stop-opacity=".5"/></linearGradient></defs></svg>