<svg width="14" height="14" viewBox="0 0 14 14" fill="none" xmlns="http://www.w3.org/2000/svg">
<path d="M8 1.5C8.27614 1.5 8.5 1.72386 8.5 2C8.5 2.24171 8.32855 2.44371 8.10059 2.49023L7.89941 2.50977C7.67145 2.55629 7.5 2.75829 7.5 3V4.5498C8.64114 4.78142 9.5 5.79051 9.5 7C9.5 8.20943 8.64105 9.21753 7.5 9.44922V11C7.5 11.8284 6.82843 12.5 6 12.5C5.72386 12.5 5.5 12.2761 5.5 12C5.5 11.7583 5.67145 11.5563 5.89941 11.5098L6.10059 11.4902C6.32855 11.4437 6.5 11.2417 6.5 11V9.44922C5.35895 9.21753 4.5 8.20943 4.5 7C4.5 5.79051 5.35886 4.78142 6.5 4.5498V3C6.5 2.17157 7.17157 1.5 8 1.5ZM6.5 5.58691C5.91766 5.79297 5.5 6.34707 5.5 7C5.5 7.65281 5.91782 8.20597 6.5 8.41211V5.58691ZM7.5 8.41211C8.08218 8.20597 8.5 7.65281 8.5 7C8.5 6.34707 8.08234 5.79297 7.5 5.58691V8.41211Z" fill="red"/>
</svg>
