<svg xmlns="http://www.w3.org/2000/svg" width="16" height="16" fill="none" viewBox="0 0 14 14"><path fill="red" d="M5.004 3.045a.5.5 0 0 1 .894.448.475.475 0 0 0 .559.668l2.188-.641.02-.005.043-.008.057-.006.04.001.053.004a.5.5 0 0 1 .145.046l.03.015q.029.016.055.038l.023.017q.023.021.044.044l.024.029a.5.5 0 0 1 .054.087l.01.018.01.03c.003.01.01.02.012.03l.003.02.009.046.006.048a.5.5 0 0 1-.005.099l-.01.048-.013.046-.016.037-.026.052-.021.03a.5.5 0 0 1-.19.163l-.016.01-2.071.906a.7.7 0 0 0-.226.154c-.512.513-.055 1.38.657 1.245l1.347-.255.021-.002a.5.5 0 0 1 .288.043q.023.012.046.027.015.008.03.02a.5.5 0 0 1 .175.23l.011.028.006.03.007.023.001.02a.5.5 0 0 1-.026.245l-.016.04a.5.5 0 0 1-.112.154l-.045.035a.5.5 0 0 1-.12.064l-.028.013-2.699.821a.613.613 0 0 0 .179 1.2h1.887a1.25 1.25 0 0 1 0 2.5H7.95a.5.5 0 0 1 0-1h.347a.25.25 0 0 0 0-.5H6.41a1.614 1.614 0 0 1-.47-3.157l.087-.027c-.585-.554-.778-1.498-.265-2.243-.736-.306-1.173-1.2-.76-2.028"/></svg>