<svg xmlns="http://www.w3.org/2000/svg" width="14" height="14" fill="none" viewBox="0 0 14 14"><path fill="red" d="M7 2.5c.088 0 .17.024.24.063l.04.023A.5.5 0 0 1 7.5 3v3.132l2.713-1.566a.501.501 0 0 1 .501.868L8.001 7l2.713 1.566a.5.5 0 0 1-.5.868L7.5 7.867V11a.5.5 0 0 1-.26.435.5.5 0 0 1-.24.065.5.5 0 0 1-.292-.097A.5.5 0 0 1 6.5 11V7.866L3.786 9.434a.5.5 0 0 1-.436.027.5.5 0 0 1-.247-.211.5.5 0 0 1 .183-.684L5.999 7 3.286 5.434a.5.5 0 0 1-.052-.832h-.001l.002-.001q.026-.018.055-.034l.06-.029a.5.5 0 0 1 .436.028L6.5 6.133V3a.5.5 0 0 1 .22-.414q.018-.012.04-.023A.5.5 0 0 1 7 2.5"/></svg>