<svg width="14" height="14" viewBox="0 0 14 14" fill="none" xmlns="http://www.w3.org/2000/svg">
<path d="M5.51605 4.0002C6.18777 2.88067 7.81113 2.88067 8.48285 4.0002L8.59222 4.18282C8.68519 4.33727 8.8656 4.41731 9.04242 4.38204C10.207 4.14925 11.1302 5.35783 10.5991 6.42013L10.5502 6.5168C10.517 6.58341 10.4995 6.65721 10.4994 6.73165V7.57052C10.4992 8.62161 9.51141 9.39355 8.49164 9.13888L8.37445 9.10958C8.23722 9.07528 8.09171 9.1151 7.99164 9.21505C7.84727 9.35934 7.67864 9.46419 7.49945 9.53243V11.5002C7.49923 11.7762 7.27546 12.0002 6.99945 12.0002C6.7235 12.0001 6.49967 11.7761 6.49945 11.5002V9.53243C6.32029 9.46417 6.1516 9.35934 6.00726 9.21505C5.90718 9.11509 5.76169 9.07527 5.62445 9.10958L5.50726 9.13888C4.48757 9.39338 3.49971 8.62153 3.49945 7.57052V6.73165C3.49945 6.65717 3.48193 6.58344 3.44867 6.5168L3.39984 6.42013C2.8687 5.35785 3.79191 4.14929 4.95648 4.38204C5.13332 4.41741 5.31365 4.33726 5.40668 4.18282L5.51605 4.0002ZM7.62543 4.51485C7.34211 4.04266 6.65679 4.04266 6.37347 4.51485L6.2641 4.69747C5.95362 5.2142 5.35138 5.48075 4.76019 5.36251C4.4117 5.29312 4.13541 5.65493 4.29437 5.97286L4.3432 6.06954C4.44589 6.27503 4.49945 6.50192 4.49945 6.73165V7.57052C4.49971 7.9711 4.87638 8.2652 5.26507 8.16817L5.38226 8.13888C5.86024 8.01943 6.36586 8.15971 6.71429 8.50802C6.87158 8.66515 7.12726 8.66507 7.28461 8.50802C7.63303 8.15971 8.13867 8.01944 8.61664 8.13888L8.73382 8.16817C9.12259 8.26536 9.49919 7.97118 9.49945 7.57052V6.73165C9.49945 6.50196 9.55304 6.275 9.6557 6.06954L9.70453 5.97286C9.8635 5.65492 9.58722 5.29308 9.23871 5.36251C8.64754 5.48065 8.04523 5.21421 7.7348 4.69747L7.62543 4.51485Z" fill="red"/>
</svg>
