<svg width="14" height="14" viewBox="0 0 14 14" fill="none" xmlns="http://www.w3.org/2000/svg">
<path d="M6.99999 2C7.16716 2.00001 7.32327 2.08356 7.416 2.22266L9.416 5.22266C9.51828 5.37608 9.52742 5.57375 9.44042 5.73633C9.36424 5.87829 9.22529 5.97347 9.06835 5.99512L8.99999 6L9.90038 7.2002C10.0138 7.35167 10.0319 7.55436 9.94725 7.72363C9.88967 7.8388 9.79047 7.92333 9.67381 7.9668L10.8535 9.14648C10.9965 9.28948 11.0393 9.50457 10.9619 9.69141C10.8845 9.8782 10.7022 9.99999 10.5 10H7.49999V11.5C7.49999 11.7761 7.27612 12 6.99999 12C6.72384 12 6.49999 11.7761 6.49999 11.5V10H3.49999C3.29778 10 3.11548 9.8782 3.03807 9.69141C2.96068 9.50457 3.00347 9.28948 3.14647 9.14648L4.32518 7.9668C4.20889 7.92323 4.11017 7.83852 4.05272 7.72363C3.96808 7.55436 3.98617 7.35167 4.0996 7.2002L4.99999 6C4.81577 6 4.64664 5.89862 4.55956 5.73633C4.47255 5.57375 4.48168 5.37608 4.58397 5.22266L6.58397 2.22266L6.62206 2.17285C6.71634 2.06392 6.85388 2 6.99999 2ZM5.93456 5H5.99999C6.18937 5.00001 6.36256 5.10698 6.44725 5.27637C6.53188 5.44564 6.51379 5.64833 6.40038 5.7998L5.49999 7C5.70219 7.00001 5.8845 7.1218 5.9619 7.30859C6.03929 7.49543 5.99649 7.71052 5.8535 7.85352L4.70702 9H9.29295L8.14647 7.85352C8.00347 7.71052 7.96068 7.49543 8.03807 7.30859C8.11548 7.1218 8.29778 7 8.49999 7L7.5996 5.7998C7.48617 5.64833 7.46808 5.44564 7.55272 5.27637C7.63742 5.10698 7.8106 5 7.99999 5H8.06542L6.99999 3.40137L5.93456 5Z" fill="red"/>
</svg>
