<svg xmlns="http://www.w3.org/2000/svg" width="14" height="14" fill="none" viewBox="0 0 14 14"><path fill="red" d="M5.516 4a1.73 1.73 0 0 1 2.967 0l.11.183a.43.43 0 0 0 .45.199c1.164-.233 2.087.976 1.556 2.038l-.049.097a.5.5 0 0 0-.05.215v.839a1.617 1.617 0 0 1-2.008 1.568l-.118-.03a.4.4 0 0 0-.382.106c-.145.144-.313.25-.493.317V11.5a.5.5 0 0 1-1 0V9.532a1.4 1.4 0 0 1-.492-.317.4.4 0 0 0-.383-.105l-.117.029A1.617 1.617 0 0 1 3.5 7.57v-.84a.5.5 0 0 0-.05-.214l-.05-.097c-.53-1.062.393-2.27 1.557-2.038a.43.43 0 0 0 .45-.2zm2.11.515a.73.73 0 0 0-1.253 0l-.109.182c-.31.517-.913.784-1.504.666a.428.428 0 0 0-.466.61l.05.097c.102.205.155.432.155.662v.839c0 .4.377.694.766.597l.117-.03c.478-.119.984.022 1.332.37a.404.404 0 0 0 .57 0 1.4 1.4 0 0 1 1.333-.37l.117.03a.616.616 0 0 0 .765-.597v-.84c0-.229.054-.456.157-.661l.049-.097a.428.428 0 0 0-.466-.61 1.43 1.43 0 0 1-1.504-.666z"/></svg>