<svg xmlns="http://www.w3.org/2000/svg" width="14" height="14" fill="none" viewBox="0 0 14 14"><path fill="red" d="M3.646 2.646a.5.5 0 0 1 .708 0L5.58 3.873c.412-.274.75-.65.973-1.097a.5.5 0 0 1 .894.448 3.85 3.85 0 0 1-1.2 1.406c.186.285.326.6.41.934l.15.604c.27-.537.71-.985 1.268-1.265.358-.179.65-.47.828-.828l.65-1.299a.5.5 0 0 1 .894.448l-.65 1.298c-.275.552-.723 1-1.275 1.276a1.85 1.85 0 0 0-.979 1.258 2.83 2.83 0 0 1 2.914-.57l.138.056.088.05a.5.5 0 0 1-.489.866 1.833 1.833 0 0 0-2.431.991l-.263.649V11.5a.5.5 0 0 1-1 0V9.19l-.745-.841a6.4 6.4 0 0 0-2.902-1.871.5.5 0 1 1 .294-.956 7.4 7.4 0 0 1 2.89 1.684l-.35-1.398a2.05 2.05 0 0 0-.54-.955l-1.5-1.5a.5.5 0 0 1 0-.707"/></svg>